<?xml version="1.0" encoding="UTF-8"?>
<svg xmlns="http://www.w3.org/2000/svg" version="1.1" viewBox="0 0 1280 640">
  <defs>
    <style>
      .cls-1 {
        isolation: isolate;
        opacity: .2;
      }

      .cls-2 {
        fill: #c3eaa9;
      }

      .cls-3 {
        fill: #fff;
      }
    </style>
  </defs>
  <!-- Generator: Adobe Illustrator 28.7.1, SVG Export Plug-In . SVG Version: 1.2.0 Build 142)  -->
  <g>
    <g id="Layer_1">
      <path class="cls-2" d="M1162.4,322.5l4.1-2.1-509-252.3h0c-5-2.6-11.4-4-18-4s-12.9,1.4-17.9,3.8L119.4,319.8l8.3,4.2,493.4,251c5,2.5,19.8,9.9,38.1-1.1l503.2-251.5h0Z"/>
      <path class="cls-1" d="M657.5,68.1h0c-5-2.6-11.4-4-18-4s-12.9,1.4-17.9,3.8L119.4,319.8l501.1,252.6c5,2.5,11.5,6.6,18.1,6.6s12.8-4.1,17.8-6.5l510.1-252.1-509-252.3ZM625.6,564l-483.8-244.2,484.3-242.8c3.6-1.8,8.4-2.8,13.5-2.8s9.9,1,13.5,2.8l491,243.3-490.8,243.4c-9.6,5.9-20.9,4.8-27.7.3Z"/>
      <path class="cls-1" d="M1170.5,318.8h-.2l-511.5-253.5c-5.5-2.7-12.4-4.2-19.3-4.2s-13.8,1.5-19.3,4.2L115.7,318.3c-.1,0-.7.4-.8.5,0,0,0,.2,0,1s.4,1.3.8,1.5h.1c0,0,503.5,253.9,503.5,253.9,5.5,2.7,12.3,4.2,19.3,4.2s13.8-1.5,19.3-4.2l511.7-252.9.7-.5q.9-.5.9-1.5c0-.7-.2-1-.7-1.4ZM654.7,568.9c-4.6,2.2-9.6,4.7-15.5,4.7s-12.4-2.5-16.9-4.8l-494-249,495-248.3c4.6-2.2,10.3-3.4,16.2-3.4s11.7,1.2,16.2,3.5h0c.4.2.9.5,1.4.7l4.3,2.1c3.7,1.9,9.2,4.6,16.2,8,13.9,6.9,33.8,16.8,57.7,28.6,47.7,23.7,111.3,55.2,175,86.8,109.3,54.2,218.6,108.4,247.3,122.6l-502.8,248.5Z"/>
      <path class="cls-3" d="M1170.5,318.8h-.2l-511.5-253.5c-5.5-2.7-12.4-4.2-19.3-4.2s-13.8,1.5-19.3,4.2L115.7,318.3c-.1,0-.7.4-.8.5,0,0,0,.2,0,1s.4,1.3.8,1.5h.1c0,0,503.5,253.9,503.5,253.9,5.5,2.7,13.3,6.1,20.3,6.1s12.8-3.4,18.3-6.1l511.7-252.9.7-.5q.9-.5.9-1.5c0-.7-.2-1-.7-1.4ZM656.4,572.5c-5,2.4-11.2,5.3-17.8,5.3s-13.1-2.9-18.1-5.4L119.4,319.8l502.2-251.9c5-2.4,11.3-3.8,17.9-3.8s13,1.4,18,3.9c0,0,509,252.4,509,252.4l-510.1,252.1Z"/>
      <path class="cls-1" d="M1172.9,315.6l-1.1-.8h-.6L660.6,61.7c-6-3-13.5-4.6-21.1-4.6s-15,1.6-21.1,4.6L113.8,314.8c-.9.5-1.5.8-2,1.4l-.7.9v.9c-.2.5-.3,1.1-.3,1.8,0,2.3,1.2,4.2,3.1,5.1l503.5,253.8c6,3,14.2,6.2,21.8,6.2s14.3-3.2,20.4-6.2l511.9-253,.8-.5c2.1-1.2,2.9-2.5,2.9-5s-.4-3.1-2.3-4.6ZM1170.3,321.7l-.7.5-511.7,252.9c-5.5,2.7-11.7,5.8-18.6,5.8s-14.5-3.1-20-5.8L115.7,321.3h-.1c-.4-.2-.8-.6-.8-1.5s0-1,0-1c.1-.1.7-.4.8-.5l504.5-253c5.5-2.7,12.4-4.2,19.3-4.2s13.8,1.5,19.3,4.2l511.5,253.5h.2c.5.4.7.7.7,1.4q0,1-.9,1.5Z"/>
      <path class="cls-1" d="M1230.9,302.7l-3.4-1.9h0S693.7,36.1,693.7,36.1c-12-11.9-59.1-25.9-58.2-17.2-11.7-6.7-44.5,10.9-57.2,17.1L51.4,300.2c-11.8,5.9-19.1,13.6-19.1,20s7.4,14.2,19.2,20.1l527.8,264.7c7.7,3.9,69.1,28.5,61.1,16,13.8,4.1,48.6-13.2,54.1-15.9l532.9-264.2c13.2-6.6,19.1-15,19.1-20s-5.9-12.6-15.7-18.2ZM1228.9,335.7h0s-532.6,264.4-532.6,264.4c-6.8,3.4-33.1,17-60.6,16s-48.2-11.1-55.5-14.8c-1.1-.6-526.9-264.6-526.9-264.6-11.7-5.8-17-12.5-17-16.5s5.2-10.6,16.8-16.4L587.2,36.6c11.3-4.5,24.6-12.1,48.3-12.7s49.7,12.1,49.7,12.1l540.4,268.4c11.7,5.8,17,12.6,17,16.5s-5.4,10.1-13.7,14.8Z"/>
      <path class="cls-2" d="M1237.8,280.1L704,15.5C685.6,6.3,661.1.1,635.5.1s-49.2,6.2-67.5,15.3L41.2,279.6c-20.5,10.2-50,27.8-50,43.8s29.5,27.2,50.1,37.5l527.8,264.7c18.4,9.2,42.5,14.2,68.1,14.2h0c25.5,0,51.6-5,69.9-14.1l530.9-264.2c20.5-10.2,48.3-26.3,48.3-42.3s-27.8-28.7-48.4-39h0ZM1227.7,340.8l-531.5,268.7c-15.2,7.6-38.4,15.2-60.4,15.2s-46.4-9.6-61.6-17.2L51.5,340.3c-11.8-5.9-19.2-13.6-19.2-20.1s7.3-14.1,19.1-20L578.3,36c15.2-7.6,34.9-16.9,56.9-16.9s43.3,9.4,58.5,17l533.8,264.7c11.8,5.9,19.2,13.6,19.2,20.1s-7.3,14.1-19.1,20h0Z"/>
      <path class="cls-1" d="M1233.4,289.1L702.4,26.7c-55.6-29.6-93.2-22.3-129.9-2.3L45.6,288.6c-35.1,17.5-35,45.8,0,63.3l522.4,263.5c47.1,23.3,79.1,28.8,136.1,1.4l529.2-264.4c35.1-17.5,35-45.8,0-63.3h0ZM1227.7,340.8l-532.9,264.2c-15.2,7.6-36.1,15.2-58.1,15.2s-42.1-7.7-57.3-15.3L51.5,340.3c-11.8-5.9-19.2-13.6-19.2-20.1s7.3-14.1,19.1-20L578.3,36c15.2-7.6,34.9-17.2,56.9-17.2s40.7,8.7,58.5,17.3l533.8,264.7c11.8,5.9,19.2,13.6,19.2,20.1s-7.3,14.1-19.1,20h0Z"/>
      <path class="cls-1" d="M1230.6,294.3v.2c0,0-531-264.2-531-264.2-16.2-8.1-39-18.6-63.2-18.4s-41.2,8.8-61.5,16.4L48.3,293.9c-14.6,7.3-22.9,16.8-22.9,26.2s8.4,19.1,23,26.4l523,264.6c16.2,8.1,41,17.8,66.6,17.8s52.5-11.4,68.6-19.5l524-262.6c14.6-7.3,22.9-16.8,22.9-26.2s-8.4-19.1-23-26.4ZM1229.1,343.6l-530.9,264.2c-15.6,7.7-35.9,16.3-58.4,16.3s-46.2-8.6-61.8-16.4L50.2,343c-13-6.5-20.8-15-20.8-22.8s7.7-16.2,20.7-22.7L577,33.3c15.6-7.7,29.9-16.5,58.1-16.5s44.5,8.8,60.1,16.6l533.8,264.7h0c13,6.5,20.8,15,20.8,22.8s-7.7,16.2-20.7,22.7Z"/>
      <path class="cls-3" d="M1229,298.1h0S695.2,33.4,695.2,33.4c-15.6-7.8-34.5-17.2-59.4-16.6s-43.2,8.8-58.8,16.5L50.1,297.5c-13,6.5-20.7,14.9-20.7,22.7s7.8,16.3,20.8,22.8l522.9,263.9c15.6,7.8,41.9,17.5,64.4,17.5s47.4-9.2,63-16.9l528.6-263.9c13-6.5,20.7-14.9,20.7-22.7s-7.8-16.3-20.8-22.8ZM1227.6,340.9h0c0-.1-531.2,263.8-531.2,263.8-17.5,7.6-35.9,15.5-57.9,15.5s-44-7.7-59.2-15.3L51.5,340.3c-11.8-5.9-19.2-13.6-19.2-20.1s7.3-14.1,19.1-20L578.3,36c15.2-7.6,34.9-15.9,56.9-16.4s42.9,10.2,58.5,16.5l533.8,264.7c11.8,5.9,19.2,13.6,19.2,20.1s-7.3,14.1-19.1,20Z"/>
    </g>
  </g>
</svg>