<?xml version="1.0" encoding="UTF-8"?>
<svg xmlns="http://www.w3.org/2000/svg" version="1.1" viewBox="0 0 180 120">
  <defs>
    <style>
      .cls-1, .cls-2 {
        fill: none;
      }

      .cls-3 {
        fill: #3f3f3f;
      }

      .cls-4 {
        fill: #2b2b2b;
      }

      .cls-5 {
        fill: #444;
      }

      .cls-6 {
        fill: #7e8082;
      }

      .cls-7 {
        fill: #232323;
      }

      .cls-8 {
        fill: gray;
      }

      .cls-9 {
        fill: #414042;
      }

      .cls-10 {
        mix-blend-mode: hard-light;
      }

      .cls-10, .cls-11, .cls-12 {
        opacity: .2;
      }

      .cls-13 {
        fill: #da291c;
        fill-rule: evenodd;
      }

      .cls-11 {
        mix-blend-mode: multiply;
      }

      .cls-14 {
        fill: #ffd400;
      }

      .cls-15 {
        fill: #70706e;
      }

      .cls-16 {
        fill: #777f7e;
      }

      .cls-17 {
        fill: #aec1bf;
      }

      .cls-18 {
        fill: #f94c08;
      }

      .cls-19 {
        fill: #b27d12;
      }

      .cls-20 {
        fill: #485966;
      }

      .cls-21 {
        fill: #b3f1ff;
      }

      .cls-2 {
        stroke: #ba6c06;
        stroke-miterlimit: 10;
        stroke-width: .6px;
      }

      .cls-22 {
        fill: #db9b1b;
      }

      .cls-23, .cls-12, .cls-24 {
        isolation: isolate;
      }

      .cls-25 {
        fill: #a57516;
      }

      .cls-26 {
        fill: #989899;
      }

      .cls-27 {
        fill: #ffb600;
      }

      .cls-28 {
        fill: #00a1e9;
      }

      .cls-29, .cls-12, .cls-24 {
        fill: #fff;
      }

      .cls-30 {
        fill: #b23606;
      }

      .cls-31 {
        fill: #144fc6;
      }

      .cls-32 {
        fill: #666;
      }

      .cls-33 {
        fill: #724e0f;
      }

      .cls-34 {
        fill: #204a96;
      }

      .cls-35 {
        fill: #f6931e;
      }

      .cls-36 {
        fill: #9a9e9d;
      }

      .cls-37 {
        fill: #002151;
      }

      .cls-38 {
        fill: #859392;
      }

      .cls-39 {
        fill: #b3b3b3;
      }

      .cls-40 {
        fill: #424242;
      }

      .cls-41 {
        fill: #0a2b77;
      }

      .cls-42 {
        fill: #929497;
      }

      .cls-43 {
        fill: #e88b1c;
      }

      .cls-44 {
        fill: #2d2d2d;
      }

      .cls-45 {
        fill: #d47f1a;
      }

      .cls-46 {
        fill: #353535;
      }

      .cls-47 {
        fill: #ffc200;
      }

      .cls-48 {
        fill: #c18816;
      }

      .cls-24 {
        opacity: .5;
      }
    </style>
  </defs>
  <!-- Generator: Adobe Illustrator 28.7.1, SVG Export Plug-In . SVG Version: 1.2.0 Build 142)  -->
  <g class="cls-23">
    <g id="Layer_1">
      <g>
        <path class="cls-18" d="M26.6,57.7l-4.8,4-1.2.8v-2.2l-2.9-.2s-.3-1.2-.5-1.2l3.9-2.2,5.5.9h0Z"/>
        <path class="cls-30" d="M27.3,58.1c0-.4-.4-.5-.7-.4l-5.9,2.6s-2.5-1.3-2.8-1.4-.7,0-.7.4v2.2c0,.5.2.7.5.9l1.4.9c.9.5,1.6.6,2.7,0l4.2-2c.4,0,.7-.5.7-.9l.5-2.1.2-.2h-.1Z"/>
      </g>
      <polygon class="cls-25" points="70.6 19.2 70.5 18 20.3 43.3 23.9 42.5 70.6 19.2"/>
      <polygon class="cls-33" points="86.8 20.3 70.5 18 68.7 18.9 86.1 21.5 106 51.6 106.2 29.4 86.8 20.3"/>
      <polygon class="cls-19" points="86.1 21.5 70.6 19.2 68.5 34.6 98.2 49.6 104.2 52.6 104.2 30.4 86.1 21.5"/>
      <polygon class="cls-22" points="70.6 19.2 70.4 34.8 22 59 23.9 42.5 70.6 19.2"/>
      <polygon class="cls-41" points="70.6 26.2 102.6 42.2 70.6 65.7 31 45.9 70.6 26.2"/>
      <polygon class="cls-25" points="38.4 44.6 22.9 42.4 20.3 43.3 46.5 59 57.6 75.8 59 53.4 59.6 51 55.7 52.7 38.4 44.6"/>
      <path class="cls-47" d="M37.7,45.7l-17.4-2.4-.2,15.6,1.9.9s9.6-2.4,17.9,1.1c1.1.5,2.1,1.1,3,1.7l7.5-10.7-12.6-6.2h-.1Z"/>
      <polygon class="cls-48" points="55.9 54.6 55.8 76.9 106.2 51.6 106.2 29.4 55.9 54.6"/>
      <path d="M42.6,55.3l-8-3.6-7.3.9c-3.8,2.8-5.3,7.1-5.3,7.1h7.2c0,0,21.3,9.9,21.3,9.9l-1.4-6.9-2.4-3.4-4.2-4.2h0Z"/>
      <g>
        <path class="cls-7" d="M53.1,75.3c.9-1.5,1.1-2.9,1.1-5.1,0-6.9-4.5-14-10.5-17.6-2.4-1.4-5.8-1.5-7.4-1.3-7.6,2-9.3,6-9.3,6,0,0,10,24.4,12.2,25.1,2.7.7,4.9,0,7.1-1.1,3.1-2.2,5.8-5.1,6.8-6Z"/>
        <path class="cls-3" d="M48.2,75.4c0,4.3-3.1,6.9-6,7.4-1.8.4-4.4-.1-6.6-1.5-6-3.4-10.8-10.9-10.3-18.7s5.4-10.2,11.4-6.8,11.4,10.6,11.5,19.6Z"/>
        <path class="cls-36" d="M38.9,78.1c-.9,0-2-.4-3.1-.9-3.8-2.2-6.9-7.4-6.9-11.8s1.4-4.9,3.8-4.9,2,.4,3.1.9c3.8,2.2,6.9,7.4,6.9,11.8s-1.4,4.9-3.8,4.9Z"/>
        <path class="cls-16" d="M41.1,77.4c-.5.5-1.4.7-2.4.7s-2-.4-3.1-.9c-3.8-2.2-6.9-7.4-6.9-11.8s.7-3.6,1.8-4.3h0s-.5,10.3,10.3,16.3h.3Z"/>
        <path class="cls-38" d="M42.4,71c0-2.7-1.8-6-4.2-7.4-.7-.4-1.3-.5-2-.5h-.9l-2.2,1.1.5,1.8h0c0,2.5,1.6,5.6,3.8,7.1l1.1,1.8s2.2-1.1,2.4-1.3h0c.9-.5,1.4-1.4,1.4-2.9v.4h.1Z"/>
        <path class="cls-17" d="M35.7,74.6c-2.4-1.3-4.2-4.7-4.2-7.4s1.1-3.1,2.5-3.1,1.3.2,2,.5c2.4,1.3,4.2,4.7,4.2,7.4s-1.1,3.1-2.5,3.1-1.3-.2-2-.5Z"/>
        <path class="cls-17" d="M36.2,60.9c-1.1-.7-2.4-1.1-3.3-1.1-2.7,0-4.3,2.2-4.3,5.4s3.1,10,7.1,12.3c1.1.7,2.4,1.1,3.3,1.1,2.7,0,4.3-2.2,4.3-5.4s-3.1-10-7.1-12.3ZM38.9,78.1c-.9,0-2-.4-3.1-.9-3.8-2.2-6.9-7.4-6.9-11.8s1.4-4.9,3.8-4.9,2,.4,3.1.9c3.8,2.2,6.9,7.4,6.9,11.8s-1.4,4.9-3.8,4.9Z"/>
      </g>
      <g>
        <polygon class="cls-37" points="88.6 7.8 90.5 8.9 99 25.9 97.1 26.9 86.3 9 88.6 7.8"/>
        <polygon class="cls-31" points="86.5 8.6 88.5 9.8 96.9 26.8 90.7 23.8 86.8 9.6 86.5 8.6"/>
        <g>
          <polygon class="cls-31" points="52.8 25.1 55.2 26.3 48.5 51.1 42.2 47.9 52.8 25.1"/>
          <polygon class="cls-37" points="48.5 51.1 50.9 49.9 56.6 27 89 10.8 88.5 9.8 55.2 26.3 48.5 51.1"/>
          <polygon class="cls-31" points="52.9 25 88.5 7.6 90.5 8.9 54.3 26.7 52.9 25"/>
        </g>
      </g>
      <path class="cls-40" d="M90.4,61.5h0q0,.1,0,0Z"/>
      <path class="cls-40" d="M90.4,61.5h0Z"/>
      <path class="cls-1" d="M120,85h0Z"/>
      <path class="cls-1" d="M119.7,85h0Z"/>
      <path class="cls-1" d="M119.8,85h0Z"/>
      <path class="cls-1" d="M119.9,85h0Z"/>
      <path class="cls-1" d="M119.6,85h0Z"/>
      <path class="cls-1" d="M119.3,85.2h0Z"/>
      <path class="cls-1" d="M119.3,85.1h0Z"/>
      <path class="cls-1" d="M119.5,85.1h0Z"/>
      <path class="cls-1" d="M119.4,85.1h0Z"/>
      <path class="cls-1" d="M121.2,85h0Z"/>
      <path class="cls-1" d="M120.1,85h0Z"/>
      <path class="cls-1" d="M121.4,85h0,0Z"/>
      <path class="cls-1" d="M121,85h0Z"/>
      <path class="cls-1" d="M121.7,85.1h0Z"/>
      <path class="cls-1" d="M119.2,85.2h0Z"/>
      <path class="cls-1" d="M120.5,85h0Z"/>
      <path class="cls-1" d="M120.2,85h0Z"/>
      <path class="cls-1" d="M120.3,85h0Z"/>
      <path class="cls-1" d="M118.9,85.4h0Z"/>
      <path class="cls-1" d="M118.4,86h0Z"/>
      <path class="cls-1" d="M118.3,86.2h0Z"/>
      <path class="cls-1" d="M118.3,86.1h0Z"/>
      <path class="cls-1" d="M118.4,85.9h0Z"/>
      <path class="cls-1" d="M118.1,86.4h0q0,0,0,0Z"/>
      <path class="cls-1" d="M118.2,86.3h0Z"/>
      <path class="cls-1" d="M118.5,85.8h0Z"/>
      <path class="cls-1" d="M118.7,85.6h0Z"/>
      <path class="cls-1" d="M121.8,85.1h0Z"/>
      <path class="cls-1" d="M118.5,85.8h0Z"/>
      <path class="cls-1" d="M118.8,85.5h0Z"/>
      <path class="cls-1" d="M119,85.3h0Z"/>
      <path class="cls-1" d="M118.9,85.4h0Z"/>
      <path class="cls-1" d="M118.6,85.7h0Z"/>
      <path class="cls-1" d="M119.1,85.3h0Z"/>
      <path class="cls-1" d="M118.7,85.5h0Z"/>
      <path class="cls-1" d="M130.1,82.5h0Z"/>
      <path class="cls-1" d="M125.8,84.9h0Z"/>
      <path class="cls-1" d="M125.6,84.9h0Z"/>
      <path class="cls-1" d="M125.4,85h0Z"/>
      <path class="cls-1" d="M128.9,83.2h.2-.2Z"/>
      <path class="cls-1" d="M126,84.8h0Z"/>
      <path class="cls-1" d="M125,85.1h0Z"/>
      <path class="cls-1" d="M125.1,85.1h0Z"/>
      <path class="cls-1" d="M124.8,85.1h0Z"/>
      <path class="cls-1" d="M125.3,85h0Z"/>
      <path class="cls-1" d="M123.6,85.2h0Z"/>
      <path class="cls-1" d="M122,85.1h0Z"/>
      <path class="cls-1" d="M129.9,82.6h.1-.1Z"/>
      <path class="cls-1" d="M129.3,82.9s.1,0,.2,0c0,0-.1,0-.2,0Z"/>
      <path class="cls-1" d="M130.6,82.3h0Z"/>
      <path class="cls-1" d="M130.2,82.4h0Z"/>
      <path class="cls-1" d="M129.7,82.7h.1-.1Z"/>
      <path class="cls-1" d="M122.7,85.2h0Z"/>
      <path class="cls-1" d="M122.6,85.2h0Z"/>
      <path class="cls-1" d="M123.1,85.2h0Z"/>
      <path class="cls-1" d="M122.4,85.1h0Z"/>
      <path class="cls-1" d="M122.2,85.1h0Z"/>
      <path class="cls-1" d="M124.6,85.1h0Z"/>
      <path class="cls-1" d="M123.2,85.2h0Z"/>
      <path class="cls-1" d="M122.9,85.2h0Z"/>
      <path class="cls-1" d="M123.9,85.2h0Z"/>
      <path class="cls-1" d="M124,85.2h0Z"/>
      <path class="cls-1" d="M124.2,85.2h0Z"/>
      <path class="cls-1" d="M124.5,85.2h0Z"/>
      <path class="cls-1" d="M124.3,85.2h0Z"/>
      <path class="cls-1" d="M123.4,85.2h0Z"/>
      <path class="cls-1" d="M123.7,85.2h0Z"/>
      <g>
        <path class="cls-47" d="M157,56.6c-.9-3-6.5-5.5-12.6-9.9-5.8-3.1-10.1-5.6-11.1-10.3-1.1-1.9-9.5-14.6-12-16.3-5.2-3.4-17.8-8.5-17.8-8.5-.9-.2-2.1-.4-6.4,1.6-8.7,4.2-19.3,9.8-33.7,17.3,0,0-.5.5-.6.8-4.5,5.7-5.6,33.1-1.5,44.1l18.1,8.4,13.8-7.5,12.2,11.6-1,4.1c.9.7,13,7.3,13.1,6.1,10.7.9,25.9-10.8,31.9-15.6l8-9.1s2.5-6.9-.4-16.8Z"/>
        <g>
          <polygon class="cls-34" points="80.2 81.8 79.7 80.9 80.8 80.3 79.5 78.3 80 78 81.9 80.8 80.2 81.8"/>
          <polygon class="cls-34" points="76.6 80 76 79.2 77.2 78.5 75.9 76.6 76.4 76.3 78.3 79 76.6 80"/>
          <polygon class="cls-34" points="73 78.2 72.4 77.4 73.6 76.7 72.3 74.8 72.8 74.5 74.7 77.3 73 78.2"/>
          <polygon class="cls-34" points="69.4 76.5 68.8 75.7 70 75 68.7 73 69.2 72.8 71.1 75.5 69.4 76.5"/>
          <polygon class="cls-34" points="65.8 74.7 65.2 73.9 66.4 73.2 65.1 71.3 65.6 71 67.5 73.7 65.8 74.7"/>
          <polygon class="cls-34" points="62.2 72.9 61.6 72.1 62.8 71.4 61.5 69.5 62 69.2 63.9 72 62.2 72.9"/>
        </g>
        <g>
          <path class="cls-13" d="M85,63.4c-.8-1.8-4.3-2.7-8.5-2.4.2.3.5.7.7,1.1,3.3,0,5.9.7,6.5,2.2.7,1.7-1.5,3.8-5.3,5.2h0c4.6-1.5,7.5-4,6.6-6.1h0Z"/>
          <path class="cls-13" d="M62.4,57.6c-.2-3.5,3.2-4.5,7.6-2.2,4.5,2.3,8.2,7,8.5,10.5.2,3.5-3.2,4.5-7.7,2.2s-8.2-7-8.4-10.5h0ZM66.6,55l2,7.4,1.1-6.7c-1.1-.5-2.2-.8-3.1-.7h0ZM69.9,59.3l-.6,3.5,1.7.9-1.1-4.3h0ZM72.5,64.4l1-6c-1-1-2.1-1.8-3.2-2.4l2.2,8.4h0ZM67,61.6l-1.1-4.3-.6,3.5,1.7.8h0ZM76.6,67.3c.4-.5.5-1.3.5-2.1,0-1.7-1-3.6-2.4-5.4l2,7.6h0ZM74.9,65.7l-1.1-4.3-.6,3.5,1.7.9h0ZM75.1,66.5l-2-1v.8c0,0,.5,2.2.5,2.2.8,0,1.4,0,2-.2l-.4-1.7h0ZM68,65.6l-.8-3.1-2-1v.7c.6,1.3,1.6,2.4,2.8,3.5h0ZM71.2,64.5l-2-1-.5,2.7c.7.5,1.4,1,2.1,1.4s.9.4,1.3.5l-.9-3.6h0ZM65.6,55.2c-1.2.4-1.9,1.5-1.8,3.1s.3,1.8.8,2.7l1-5.9h0Z"/>
          <path class="cls-13" d="M65,68.6c-.4-1.1.3-2.3,1.7-3.4h0c0,0-.3-.2-.4-.3h0l-.4-.4c-1.8,1.3-2.6,2.7-2.1,4,.6,1.5,3,2.3,6.1,2.4h0c-2.5-.3-4.3-1-4.9-2.2h0Z"/>
        </g>
        <path class="cls-32" d="M157.8,72.5c-2,4.1-9.5,10-13.5,12s-11.4,5.5-17.4,7.4-9.7,2.7-14,1.8-6.6-3.3-6.6-3.3c0,0-.8,3.4.5,6.8s3.4,2.1,5.5,2.9c3.8,1.5,9.1,2.4,16.2.3,11.2-3.4,22.5-10.9,25.1-13.6,4.2-4.4,5.2-9,4.2-14.3Z"/>
      </g>
      <g>
        <path class="cls-28" d="M95.3,59.2c.4.5.9.9,1.6.7,26.5-7.1,34.5-15.8,37.2-19,.4-.5.4-1.1,0-1.6-1.9-4.8-4.9-8.5-11.1-17.1-.6-.8-.9-.4-1.4,0-3.3,2.2-17.7,12.8-36.7,17.2-.5.2-.7.7-.5,1.3,1.3,2.4,2.4,3.9,4.4,7.6s6.5,11,6.5,11h0Z"/>
        <polygon class="cls-12" points="117.7 24.7 111.6 28.4 129.5 44.6 132.2 42.4 117.7 24.7"/>
        <polygon class="cls-12" points="110.3 29.3 108.2 30.3 127.3 46.1 128.5 45.3 110.3 29.3"/>
      </g>
      <g>
        <g class="cls-23">
          <g class="cls-23">
            <g class="cls-23">
              <path class="cls-42" d="M110.1,18.6v.5c0,.4-.4.9-.9,1.1-1.3.7-3.3.7-4.5,0-.5-.4-.9-.7-.9-1.1v-.5c0,.4.4.9.9,1.1,1.3.7,3.3.7,4.5,0,.5-.4.9-.7.9-1.1h0Z"/>
            </g>
            <g class="cls-11">
              <path class="cls-9" d="M110.1,19c0,.4-.4.9-.9,1.1-1.3.7-3.3.7-4.5,0-.5-.4-.9-.7-.9-1.1h0c0,.5.4.9.9,1.3,1.3.7,3.3.7,4.5,0,.5-.4.9-.7.9-1.1h0s0-.2,0-.2Z"/>
            </g>
          </g>
          <path class="cls-6" d="M109.2,17.3c1.3.7,1.3,1.6,0,2.4s-3.3.7-4.5,0-1.3-1.6,0-2.4c1.3-.7,3.3-.7,4.5,0Z"/>
        </g>
        <g class="cls-23">
          <g class="cls-23">
            <g class="cls-23">
              <path class="cls-42" d="M99,24.4v.5c0,.4-.4.9-.9,1.1-1.3.7-3.3.7-4.5,0-.5-.4-.9-.7-.9-1.1v-.5c0,.4.4.9.9,1.1,1.3.7,3.3.7,4.5,0,.5-.4.9-.7.9-1.1h0Z"/>
            </g>
            <g class="cls-11">
              <path class="cls-9" d="M99,24.7c0,.4-.4.9-.9,1.1-1.3.7-3.3.7-4.5,0-.5-.4-.9-.7-.9-1.1h0c0,.5.4.9.9,1.3,1.3.7,3.3.7,4.5,0,.5-.4.9-.7.9-1.1h0s0-.2,0-.2Z"/>
            </g>
          </g>
          <path class="cls-6" d="M98.1,23.1c1.3.7,1.3,1.6,0,2.4-1.3.7-3.3.7-4.5,0-1.3-.7-1.3-1.6,0-2.4s3.3-.7,4.5,0Z"/>
        </g>
        <g>
          <g class="cls-23">
            <g class="cls-23">
              <g class="cls-23">
                <path class="cls-42" d="M86.5,30v.5c0,.4-.4.9-.9,1.1-1.3.7-3.3.7-4.5,0-.5-.4-.9-.7-.9-1.1v-.5c0,.4.4.9.9,1.1,1.3.7,3.3.7,4.5,0,.5-.4.9-.7.9-1.1h0Z"/>
              </g>
              <g class="cls-11">
                <path class="cls-9" d="M86.5,30.4c0,.4-.4.9-.9,1.1-1.3.7-3.3.7-4.5,0-.5-.4-.9-.7-.9-1.1h0c0,.5.4.9.9,1.3,1.3.7,3.3.7,4.5,0,.5-.4.9-.7.9-1.1h0s0-.2,0-.2Z"/>
              </g>
            </g>
            <path class="cls-6" d="M85.6,28.7c1.3.7,1.3,1.6,0,2.4-1.3.7-3.3.7-4.5,0s-1.3-1.6,0-2.4c1.3-.7,3.3-.7,4.5,0Z"/>
          </g>
          <g>
            <g>
              <g class="cls-23">
                <g class="cls-23">
                  <g class="cls-23">
                    <path class="cls-35" d="M109.8,17.9l-1.6-2.5c0-.1-.2-.2-.3-.3-.6-.3-1.5-.3-2.1,0-.2,0-.3.2-.4.3l-1.6,2.5c.2-.2.4-.5.8-.6,1.2-.6,3.2-.6,4.5,0,.3.2.6.4.7.6h0Z"/>
                  </g>
                </g>
                <path class="cls-45" d="M109,19.6c-1.2.6-3.2.6-4.5,0-1.2-.6-1.2-1.7,0-2.3,1.2-.6,3.2-.6,4.5,0,1.2.6,1.2,1.7,0,2.3Z"/>
                <g class="cls-23">
                  <g class="cls-23">
                    <path class="cls-35" d="M109,19.6l-1.2-3.3c.4-.2.5-.5.4-.8l1.6,2.5c.4.6,0,1.2-.8,1.7h0Z"/>
                  </g>
                  <path class="cls-35" d="M108.2,15.9l-.2-.3v.4h0c0-.1,0,0,0,0Z"/>
                </g>
                <g class="cls-23">
                  <g class="cls-23">
                    <path class="cls-35" d="M103.8,17.9l1.6-2.5c-.2.3,0,.6.3.8.6.3,1.5.3,2.1,0l1.2,3.3c-1.2.6-3.2.6-4.5,0-.9-.5-1.1-1.1-.7-1.6h0Z"/>
                  </g>
                </g>
                <path class="cls-45" d="M107.9,16.2c-.6.3-1.5.3-2.1,0-.6-.3-.6-.8,0-1.1s1.5-.3,2.1,0,.6.8,0,1.1Z"/>
                <path class="cls-43" d="M107.4,16c-.4.2-.9.2-1.3,0-.3-.2-.3-.5,0-.6.4-.2.9-.2,1.3,0,.3.2.3.5,0,.6Z"/>
                <g class="cls-10">
                  <path class="cls-29" d="M106.2,16.2c-.5-.3-.5-.7,0-1,.3-.2.7-.2,1.1-.2-.5,0-1,0-1.4.1-.5.3-.5.7,0,1,.2.1.5.2.8.2-.2,0-.3,0-.5-.2h0Z"/>
                </g>
              </g>
              <g class="cls-10">
                <path class="cls-29" d="M109.9,18.6h0l-1.7-2.6h0s-.2.1-.3.2l1.2,3.3c.6-.3.9-.6.9-1h0Z"/>
              </g>
            </g>
            <g>
              <g class="cls-23">
                <g class="cls-23">
                  <g class="cls-23">
                    <path class="cls-35" d="M86.3,29.2l-1.6-2.5c0-.1-.2-.2-.3-.3-.6-.3-1.5-.3-2.1,0-.2,0-.3.2-.4.3l-1.6,2.5c.2-.2.4-.5.8-.6,1.2-.6,3.2-.6,4.5,0,.3.2.6.4.7.6h0Z"/>
                  </g>
                </g>
                <path class="cls-45" d="M85.6,30.9c-1.2.6-3.2.6-4.5,0-1.2-.6-1.2-1.7,0-2.3,1.2-.6,3.2-.6,4.5,0,1.2.6,1.2,1.7,0,2.3Z"/>
                <g class="cls-23">
                  <g class="cls-23">
                    <path class="cls-35" d="M85.6,30.9l-1.2-3.3c.4-.2.5-.5.4-.8l1.6,2.5c.4.6,0,1.2-.8,1.7h0Z"/>
                  </g>
                  <path class="cls-35" d="M84.8,27.3l-.2-.3v.4h0c0-.1,0-.1,0-.1Z"/>
                </g>
                <g class="cls-23">
                  <g class="cls-23">
                    <path class="cls-35" d="M80.4,29.2l1.6-2.5c-.2.3,0,.6.3.8.6.3,1.5.3,2.1,0l1.2,3.3c-1.2.6-3.2.6-4.5,0-.9-.5-1.1-1.1-.7-1.6h0Z"/>
                  </g>
                </g>
                <path class="cls-45" d="M84.4,27.6c-.6.3-1.5.3-2.1,0s-.6-.8,0-1.1c.6-.3,1.5-.3,2.1,0s.6.8,0,1.1Z"/>
                <path class="cls-43" d="M84,27.4c-.4.2-.9.2-1.3,0-.3-.2-.3-.5,0-.6.4-.2.9-.2,1.3,0,.3.2.3.5,0,.6Z"/>
                <g class="cls-10">
                  <path class="cls-29" d="M82.7,27.5c-.5-.3-.5-.7,0-1,.3-.2.7-.2,1.1-.2-.5,0-1,0-1.4.1-.5.3-.5.7,0,1,.2.1.5.2.8.2-.2,0-.3,0-.5-.2h0Z"/>
                </g>
              </g>
              <g class="cls-10">
                <path class="cls-29" d="M86.5,29.9h0l-1.7-2.6h0s-.2.1-.3.2l1.2,3.3c.6-.3.9-.6.9-1h0Z"/>
              </g>
            </g>
            <g>
              <g class="cls-23">
                <g class="cls-23">
                  <g class="cls-23">
                    <path class="cls-35" d="M98.8,23.7l-1.6-2.5c0-.1-.2-.2-.3-.3-.6-.3-1.5-.3-2.1,0-.2,0-.3.2-.4.3l-1.6,2.5c.2-.2.4-.5.8-.6,1.2-.6,3.2-.6,4.5,0,.3.2.6.4.7.6h0Z"/>
                  </g>
                </g>
                <path class="cls-45" d="M98,25.3c-1.2.6-3.2.6-4.5,0-1.2-.6-1.2-1.7,0-2.3,1.2-.6,3.2-.6,4.5,0,1.2.6,1.2,1.7,0,2.3Z"/>
                <g class="cls-23">
                  <g class="cls-23">
                    <path class="cls-35" d="M98,25.3l-1.2-3.3c.4-.2.5-.5.4-.8l1.6,2.5c.4.6,0,1.2-.8,1.7h0Z"/>
                  </g>
                  <path class="cls-35" d="M97.2,21.7l-.2-.3v.4h0c0-.1,0-.1,0-.1Z"/>
                </g>
                <g class="cls-23">
                  <g class="cls-23">
                    <path class="cls-35" d="M92.8,23.6l1.6-2.5c-.2.3,0,.6.3.8.6.3,1.5.3,2.1,0l1.2,3.3c-1.2.6-3.2.6-4.5,0-.9-.5-1.1-1.1-.7-1.6h0Z"/>
                  </g>
                </g>
                <path class="cls-45" d="M96.8,22c-.6.3-1.5.3-2.1,0s-.6-.8,0-1.1c.6-.3,1.5-.3,2.1,0s.6.8,0,1.1Z"/>
                <path class="cls-43" d="M96.4,21.8c-.4.2-.9.2-1.3,0-.3-.2-.3-.5,0-.6.4-.2.9-.2,1.3,0,.3.2.3.5,0,.6Z"/>
                <g class="cls-10">
                  <path class="cls-29" d="M95.1,21.9c-.5-.3-.5-.7,0-1,.3-.2.7-.2,1.1-.2-.5,0-1,0-1.4.1-.5.3-.5.7,0,1,.2.1.5.2.8.2-.2,0-.3,0-.5-.2h0Z"/>
                </g>
              </g>
              <g class="cls-10">
                <path class="cls-29" d="M98.9,24.3h0l-1.7-2.6h0s-.2.1-.3.2l1.2,3.3c.6-.3.9-.6.9-1h0Z"/>
              </g>
            </g>
          </g>
        </g>
      </g>
      <g>
        <path class="cls-20" d="M65.2,34.7c-.9-.5-2.1,0-2.1.8l-.6,7.9c0,2.9,1.9,5.7,4.9,7.5l17.2,9.8c.4.2.9,0,.9-.3v-5.3c.2-1.3,0-2.4-.7-3.6l-8.6-9.4c-.7-1.1-1.8-2-3.1-2.8l-7.9-4.5h0Z"/>
        <path class="cls-28" d="M64.2,42.9l.6-7.9v-.5h.4l6.8,3.9c1.3.7,5.4,2.8,7.6,5.1s5.2,7.6,5.2,7.6c.7,1.1,1.1,2.3,1,3.6v5c0,0-16.7-9.4-16.7-9.4-3.1-1.7-4.9-4.6-4.9-7.5v.2h0Z"/>
        <path class="cls-44" d="M82,58.8h2.6s.2-.6.2-1.2c0-2.6.8-3.4,1.2-2.7.7,1.1.7.8,2.2,3.6,1.1,2.3,1.4,4.1-.5,3.5-.7-.2-2.4-1.3-2.4-1.3h-3.7l.4-2v.2h0Z"/>
        <g>
          <path class="cls-14" d="M84,54.5c-.7-.8-2.4-1.5-2.4-1.5h-.3c0,0-.2,0-.3,0l-3,1.1c-.8.3-1.1.8-1.2,1.4l.2,6.2c0,.5.3.6,1,.7s1.4.3,2.2,0,1.7-1.9,1.7-2.4l2-5.8h.1Z"/>
          <path class="cls-27" d="M84.1,54.8c0-.3-.5-.7-.9-.5l-3.1.9c-.6,0-.9.6-1,1.3v5.7c0,.5.7.7,1.2.5l2.7-.7c.6,0,.9-.6,1-1.3v-5.6c0,0,0-.2,0-.2h0Z"/>
        </g>
        <polygon class="cls-12" points="68.3 36.4 66.2 35.1 70.2 50.9 71.4 51.6 68.3 36.4"/>
        <polygon class="cls-12" points="71.7 38.2 69 36.6 72 51.9 74 52.9 71.7 38.2"/>
      </g>
      <path class="cls-4" d="M56.6,75.9v.9l20.1,10.2c0-.3,0-.6.1-1l-20.3-10Z"/>
      <path class="cls-15" d="M77.8,82.2l-16.9-8.3-4.3,2,20.3,10c.2-1,.5-2.3.9-3.8Z"/>
      <path d="M106.3,94.4l-1.6-9.7-6-7.6-4.7-2.8h-.1c0-.1-8.8-.1-8.8-.1l-5.8,4.6c-.6,1.1-1.1,2.2-1.4,3.3-.5,1.4-.9,3.8-.9,3.8v1c-.1,0,6.7-3.3,6.7-3.3l22.7,10.8Z"/>
      <path class="cls-2" d="M96.6,60s-.4,1.1,8,5.4c10.2,5.1,23.1,4.4,31.1,13.1"/>
      <g>
        <path class="cls-26" d="M119.9,89.9c-1.3,0-2.4-.2-3.6-.5-2.3-.6-4.4-1.3-6.2-3.4-2.7-3.1-2.9-5.8-2.2-7.3.5-1,1.4-1.6,2.3-1.6s.7,0,1.1.3c2.2,1,4.4,1.1,6.5,1.1,3,0,6,0,7,3.8h0v.5c.3,1.9.6,5-1,6.4h0c-.7.5-2.2.7-3.8.7h0Z"/>
        <path class="cls-21" d="M124,82.5c-.5-1.7-1.4-2.5-2.6-2.9-.7-.2-1.5-.3-2.4-.3h-2.9c-1.6,0-3.3-.4-5-1.1-2.3-1.1-4.4,2.8-.3,7.4,1.7,2,3.7,2.6,5.9,3.2,1.4.4,2.8.5,4,.5h.8c.4,0,.6,0,.9-.2.5,0,.8-.2,1-.4,0,0,.2-.2.3-.4,1-1.4.5-4.2.4-5.7v-.2Z"/>
        <path class="cls-24" d="M123.7,88.1l-2.3-8.6c-.7-.2-1.5-.3-2.4-.3.7,2.1,2.9,8,3.4,9.6.5,0,.8-.2,1-.4,0,0,.2-.2.3-.4h0Z"/>
        <path class="cls-24" d="M116,79.2c.7,1.9,4,8.7,4.5,9.8h.8l-3.5-9.7h-1.9,0Z"/>
      </g>
      <path class="cls-47" d="M48.7,51l-7.8-.2,4.1,6.9c6.2,4.3,6,16.2,6,16.2l4.8,2.8v-22.2l-7.1-3.6Z"/>
      <path class="cls-8" d="M47.5,57c-2.6-4-8-7.3-13-7.4s-7.8,2.4-9.7,4.9-2.8,5.3-2.8,5.3c.5-1.2,1.4-2.9,2.2-3.8,4.1-5.1,14.6-5,19.8,1.9s5.6,9,7.1,16.1c.2-3.5.8-10.3-3.6-17Z"/>
      <g>
        <path class="cls-7" d="M105.7,101c.9-1.5,1.1-2.9,1.1-5.1,0-6.9-4.5-14-10.5-17.6-2.4-1.4-5.8-1.5-7.4-1.3-7.6,2-9.3,6-9.3,6,0,0,10,24.4,12.2,25.1,2.7.7,4.9,0,7.1-1.1,3.1-2.2,5.8-5.1,6.8-6Z"/>
        <path class="cls-3" d="M100.7,101.1c0,4.3-3.1,6.9-6,7.4-1.8.4-4.4-.1-6.6-1.5-6-3.4-10.8-10.9-10.3-18.7s5.4-10.2,11.4-6.8,11.4,10.6,11.5,19.6Z"/>
        <path class="cls-36" d="M91.5,103.8c-.9,0-2-.4-3.1-.9-3.8-2.2-6.9-7.4-6.9-11.8s1.4-4.9,3.8-4.9,2,.4,3.1.9c3.8,2.2,6.9,7.4,6.9,11.8s-1.4,4.9-3.8,4.9Z"/>
        <path class="cls-16" d="M93.7,103.1c-.5.5-1.4.7-2.4.7s-2-.4-3.1-.9c-3.8-2.2-6.9-7.4-6.9-11.8s.7-3.6,1.8-4.3h0s-.5,10.3,10.3,16.3h.3Z"/>
        <path class="cls-38" d="M95,96.7c0-2.7-1.8-6-4.2-7.4-.7-.4-1.3-.5-2-.5h-.9l-2.2,1.1.5,1.8h0c0,2.5,1.6,5.6,3.8,7.1l1.1,1.8s2.2-1.1,2.4-1.3h0c.9-.5,1.4-1.4,1.4-2.9v.4h.1Z"/>
        <path class="cls-17" d="M88.3,100.3c-2.4-1.3-4.2-4.7-4.2-7.4s1.1-3.1,2.5-3.1,1.3.2,2,.5c2.4,1.3,4.2,4.7,4.2,7.4s-1.1,3.1-2.5,3.1-1.3-.2-2-.5Z"/>
        <path class="cls-17" d="M88.8,86.6c-1.1-.7-2.4-1.1-3.3-1.1-2.7,0-4.3,2.2-4.3,5.4s3.1,10,7.1,12.3c1.1.7,2.4,1.1,3.3,1.1,2.7,0,4.3-2.2,4.3-5.4s-3.1-10-7.1-12.3ZM91.5,103.8c-.9,0-2-.4-3.1-.9-3.8-2.2-6.9-7.4-6.9-11.8s1.4-4.9,3.8-4.9,2,.4,3.1.9c3.8,2.2,6.9,7.4,6.9,11.8s-1.4,4.9-3.8,4.9Z"/>
      </g>
      <path class="cls-8" d="M105,82.7c-3-5.6-8.6-9.8-14.4-9.9s-9.6,2.3-11.8,5.2-2,8.1-2,8.1c.6-1.4,1.4-4.5,2.3-5.5,4.7-5.9,14-5.1,21.3,3.9s5.1,6.6,7,13.4c.2-4,.6-8.4-2.3-15.2Z"/>
      <g>
        <path class="cls-29" d="M128.7,88.9c-.5-3.3-1.1-11.8-.8-12.5,0-.4.2-.7.3-1h0c.5-1.3.7-4.3.7-4.4,0-.8,0-2.3,2.2-4.1.3-.2,20.3-11.9,21-12.4,2-1.3,3.1,0,3.3,2.5,0,.1,1.8,1.4,2.1,10.6.1,1.6.4,4.1-1.7,6.5-1.1,2-7.9,9.5-24.5,16.7,0,0-2.4.2-2.6-2Z"/>
        <path class="cls-5" d="M129.3,88.8c-.5-3.6-1.1-11.6-.8-12.2,0-.3.2-.6.3-.8h0c.6-1.3,1-3.5,1-3.6,0-.7-.5-2.7,1.5-4.4.4-.3,17.4-9.8,19.8-11.7s3.3-1,3.6.5,2.3,2,2.5,12.1c.1,1.6-.4,3.5-1.8,5.1-2.5,3.9-9.5,10.2-24.2,16.4-.7.2-1.7,0-1.8-1.3h0Z"/>
        <path class="cls-39" d="M131.5,72.7c.3-1.9-.2-3,2.2-4.1,3.4-1.6,14-7.5,19-11.6,1.7-1.4,1.6.6,2.2,1.5s.9,1.7,1,2.1c.5,3.4.9,5.2.9,7.7s0,2.7-.7,3.8c-4,6.7-14.5,12.3-24.3,16.7,0,0-.7.6-.8-.5-.4-4.3-.5-7.7-.6-10.2s0-1.7.2-2.5.7-1,1-2.8Z"/>
        <g>
          <path d="M154.3,67.2c0,.3.2.8,0,1.3,0,2.2-.4,2.7-.8,3.3-1.1,1.4-4.7,3-9.3,5.9-4.6,2.9-6.8,5.4-10.9,7.5.1.4.4.7.8.5,4.1-2.1,8.5-4.1,12.2-6.6s7-5.1,8.2-6.6,1-1.8,1-3.5c0-1.8-.7-2.5-1.2-1.7h0Z"/>
          <path d="M153.5,61.9c0,2.2,0,2.7-.4,3.2-1.1,1.4-4.7,2.4-9.4,5.9-3.4,2.5-7.2,5-11.3,7.2.1.4.7.8,1.1.5,4.1-2.1,8.6-4.4,12.2-6.6,3.5-2.3,7.6-5,8.5-6.7.9-1.7.4-1.7.5-3.9,0-1.6-.8-1.8-1.4-1,0,.3.2.8,0,1.3h.1Z"/>
          <path class="cls-46" d="M153.7,72c.6-.7,1.2-1.4,1.2-3.4s-.3-1.1-.4-1.4h0c-1.7,2.3-4.9,4.3-9,7.2-4.1,2.9-10.5,5.5-12,6.3-.3.1-.4.4-.4.7l.2,3.6v.2c4.1-2.1,8.7-4.1,12.2-6.6,4.7-3.5,7.1-5.1,8.3-6.7h-.1Z"/>
          <path class="cls-46" d="M132.6,73.8c-.3.1-.4.4-.4.7v3.5c.1,0,.3.3.3.3,4.1-2.1,8.7-4.5,12.2-6.6s7.9-5.1,8.8-6.8.5-.2.6-2.4c0-.5-.3-1.9-.4-2.3,0,0-5.2,4.6-10,7.5s-9.5,5.2-11,6.1Z"/>
        </g>
      </g>
    </g>
  </g>
</svg>