<?xml version="1.0" encoding="UTF-8"?>
<svg xmlns="http://www.w3.org/2000/svg" version="1.1" viewBox="0 0 180 120">
  <defs>
    <style>
      .cls-1 {
        fill: #3f3f3f;
      }

      .cls-2 {
        fill: #c6f3f7;
      }

      .cls-3 {
        fill: #2b2b2b;
      }

      .cls-4 {
        fill: #7e8082;
      }

      .cls-5 {
        fill: #efb206;
      }

      .cls-6 {
        fill: gray;
      }

      .cls-7 {
        fill: #414042;
      }

      .cls-8 {
        mix-blend-mode: hard-light;
      }

      .cls-8, .cls-9, .cls-10 {
        opacity: .2;
      }

      .cls-11 {
        fill: #da291c;
        fill-rule: evenodd;
      }

      .cls-9 {
        mix-blend-mode: multiply;
      }

      .cls-12 {
        fill: #70706e;
      }

      .cls-13 {
        fill: #777f7e;
      }

      .cls-14 {
        fill: #aec1bf;
      }

      .cls-15 {
        fill: #f94c08;
      }

      .cls-16 {
        fill: #485966;
      }

      .cls-17 {
        fill: #af7d25;
      }

      .cls-18 {
        fill: #b3f1ff;
      }

      .cls-19 {
        fill: none;
        stroke: #ba6c06;
        stroke-miterlimit: 10;
        stroke-width: .6px;
      }

      .cls-20, .cls-10, .cls-21 {
        isolation: isolate;
      }

      .cls-22 {
        fill: #a0a0a0;
      }

      .cls-23 {
        fill: #00a1e9;
      }

      .cls-24, .cls-10, .cls-21 {
        fill: #fff;
      }

      .cls-25 {
        fill: #b23606;
      }

      .cls-26 {
        fill: #144fc6;
      }

      .cls-27 {
        fill: #724e0f;
      }

      .cls-28 {
        fill: #204a96;
      }

      .cls-29 {
        fill: #f6931e;
      }

      .cls-30 {
        fill: #e09c05;
      }

      .cls-31 {
        fill: #9a9e9d;
      }

      .cls-32 {
        fill: #002151;
      }

      .cls-33 {
        fill: #859392;
      }

      .cls-34 {
        fill: #eaae06;
      }

      .cls-35 {
        fill: #424242;
      }

      .cls-36 {
        fill: #0a2b77;
      }

      .cls-37 {
        fill: #929497;
      }

      .cls-38 {
        fill: #e88b1c;
      }

      .cls-39 {
        fill: #d47f1a;
      }

      .cls-40 {
        fill: #333;
      }

      .cls-41 {
        fill: #ffc200;
      }

      .cls-42 {
        fill: #c18816;
      }

      .cls-21 {
        opacity: .5;
      }
    </style>
  </defs>
  <!-- Generator: Adobe Illustrator 28.7.1, SVG Export Plug-In . SVG Version: 1.2.0 Build 142)  -->
  <g class="cls-20">
    <g id="Layer_1">
      <g>
        <path class="cls-35" d="M94.3,77.2h0q0,.2,0,0Z"/>
        <path class="cls-35" d="M94.3,77.2h0Z"/>
        <polygon points="146.1 47.5 134.3 55.5 131.4 66.8 150 55.9 158.9 59.8 157.8 53 154.4 49.6 146.1 47.5"/>
        <g>
          <path class="cls-40" d="M136.6,81.4c2.2,1.1,4.4,1.8,7.1,1,2.2-.7,12.3-25.2,12.3-25.2,0,0-2-4-9.6-5.9-1.6-.2-5,0-7.4,1.4-6,3.6-10.8,12-10.8,18.9,0,2.3.7,4.1,1.6,5.4,1,.9,3.6,2.9,6.7,4.5Z"/>
          <path class="cls-1" d="M146.6,56.5c6-3.4,10.9-.8,10.9,6.1,0,6.9-4.8,15.4-10.8,18.9-2.2,1.4-4.2,1.8-6,1.4-2.9-.5-4.9-3.3-5-7.6,0-6.9,4.8-15.4,10.8-18.9Z"/>
          <path class="cls-31" d="M140.2,73.3c0-4.4,3-9.6,6.8-11.8,1.1-.5.7-.9,3.1-.9s3.8.5,3.8,4.9-3,9.6-6.8,11.8c-1.1.5-2.2.9-3.1.9-2.4,0-3.8-.5-3.8-4.9Z"/>
          <path class="cls-13" d="M141.9,77.5h.2c10.8-6.1,10.2-16.4,10.2-16.4h0c1.1.7,1.8-.1,1.8,4.3,0,4.4-3,9.6-6.8,11.8-1.1.5-2.1.9-3.1.9s-1.9-.2-2.4-.7h0Z"/>
          <path class="cls-33" d="M140.7,71.3v-.4c0,1.5.5,2.4,1.4,2.9h0c.2.2,2.4,1.3,2.4,1.3l1.1-1.8c2.2-1.5,3.8-4.6,3.7-7.1h0l.5-1.8-2.2-1.1h-.9c-.7,0-1.3.1-2,.5-2.4,1.4-4.2,4.7-4.1,7.4h.1Z"/>
          <path class="cls-14" d="M145.3,75.3c-1.4,0-2.5-.4-2.5-3.1s1.8-6.1,4.1-7.4c.7-.3.6-.5,2-.5s2.5.4,2.5,3.1-1.8,6.1-4.1,7.4c-.7.3-.6.5-2,.5Z"/>
          <path class="cls-14" d="M139.6,73.3c0,3.2,1.6,5.4,4.3,5.4.9,0,2.2-.4,3.3-1.1,4-2.3,7-9.2,7-12.4s-1.6-5.4-4.3-5.4-2.2.4-3.3,1.1c-4,2.3-7,9.2-7,12.4ZM140.2,73.3c0-4.4,3-9.6,6.8-11.8,1.1-.5.7-.9,3.1-.9s3.8.5,3.8,4.9-3,9.6-6.8,11.8c-1.1.5-2.2.9-3.1.9-2.4,0-3.8-.5-3.8-4.9Z"/>
        </g>
        <path class="cls-22" d="M158.6,33c0,0-3.3-.7-3.3-3.2s.4-1.7-.4-2.4c-1.4-1.2-10-4.3-14.7-6.5-5.8-2.7-5.4-2.4-7.7-2.5s-3.5,1.2-3.9,3.5l-4.8-1.3c.6-3.3,4.5-4.4,7.4-4.3,2.4.1,4.4.1,10.5,2.8,5,2.1,11.3,4.9,12.9,6.4,1.5,1.3,1.8,1.1,1.8,3.5s0,5.8,0,5.4l2.1-1.2h0Z"/>
        <path class="cls-30" d="M122.7,32.5c0,.2-.3.3-.5.5s.4,0,.5-.5Z"/>
        <path class="cls-35" d="M119.2,60.1h0q0,.2,0,0Z"/>
        <path class="cls-35" d="M119.2,60.1h0Z"/>
        <path class="cls-5" d="M60.9,18.8c.3-2.3,2-3.4,3.6-4.2s7.7-3.6,7.7-3.6c0,0,2.7-.7,5.8,0,3.1.7,18.5,5,18.5,5,0,0-1.4.4,15.4,9.7,4,2.2,1.5,1.6,5.6,4.2,0,0,10.3,3.2,11.1,5.2-.7-.3-7.9-2.9-8.8-3.2-5.2-1.9-8.6,0-8.6,0l-6.7,2.8s-1.4.7-2.2,2.5-1.2,5.3-1,16.4c.2,10.9,3.9,30.2,3.9,31.1l-42.2-22.9s-3.1-9.4-3.3-22.6c0-9.4.9-18.1,1.2-20.4Z"/>
        <g>
          <g>
            <g class="cls-20">
              <g class="cls-20">
                <g class="cls-20">
                  <path class="cls-37" d="M72.1,15.7c0,.4.3.8.9,1.1,1.3.6,3.3.6,4.6,0,.7-.3,1-.7,1-1.1v.5c0,.4-.4.8-1,1.1-1.3.6-3.3.6-4.6,0-.6-.3-.9-.7-.9-1.1v-.5h0Z"/>
                </g>
                <g class="cls-9">
                  <path class="cls-7" d="M72.1,16.1h0c0,.4.3.8.9,1.1,1.3.6,3.3.6,4.6,0,.7-.3,1-.7,1-1.2h0c0,.4-.4.8-1,1.1-1.3.6-3.3.6-4.6,0-.6-.3-.9-.7-.9-1.1h0Z"/>
                </g>
              </g>
              <path class="cls-4" d="M77.7,14.6c1.3.6,1.3,1.6,0,2.2-1.3.6-3.3.6-4.6,0s-1.3-1.6,0-2.2c1.3-.6,3.3-.6,4.6,0Z"/>
            </g>
            <g class="cls-20">
              <g class="cls-20">
                <g class="cls-20">
                  <path class="cls-29" d="M72.3,15.2c0-.2.4-.4.7-.6,1.2-.6,3.2-.6,4.5,0,.4.2.6.4.8.6l-1.6-2.3c0-.1-.2-.3-.4-.3-.6-.3-1.5-.3-2.1,0-.1.1-.3.3-.3.3l-1.6,2.3h0Z"/>
                </g>
              </g>
              <path class="cls-39" d="M73.1,14.5c1.2-.6,3.2-.6,4.5,0,1.2.6,1.2,1.6,0,2.2s-3.2.6-4.5,0c-1.2-.6-1.2-1.6,0-2.2Z"/>
              <g class="cls-20">
                <g class="cls-20">
                  <path class="cls-29" d="M73.1,16.8h0c-.9-.4-1.2-1.1-.8-1.6l1.6-2.3c-.2.2,0,.5.4.7l-1.2,3.1h0Z"/>
                </g>
                <path class="cls-29" d="M74,13.4h0v-.3s-.2.2-.2.2h0Z"/>
              </g>
              <g class="cls-20">
                <g class="cls-20">
                  <path class="cls-29" d="M78.4,15.1c.4.5.2,1.1-.7,1.5-1.2.6-3.2.6-4.5,0l1.2-3.1c.6.3,1.5.3,2.1,0,.3-.2.5-.5.3-.7l1.6,2.3h0Z"/>
                </g>
              </g>
              <path class="cls-39" d="M74.3,12.6c.6-.3,1.5-.3,2.1,0s.6.7,0,1-1.5.3-2.1,0-.6-.7,0-1Z"/>
              <path class="cls-38" d="M74.7,12.8c.4-.2.9-.2,1.3,0,.3.2.3.4,0,.6-.4.2-.9.2-1.3,0-.3-.2-.3-.4,0-.6Z"/>
              <g class="cls-8">
                <path class="cls-24" d="M76,13.5c-.2.2-.3.2-.5.2.3,0,.6,0,.8-.2.6-.2.5-.7,0-.9-.4-.1-.9-.1-1.4-.1.4,0,.8,0,1.1.2.5.2.5.6,0,.9h0Z"/>
              </g>
            </g>
            <g>
              <g class="cls-20">
                <g class="cls-20">
                  <g class="cls-20">
                    <path class="cls-37" d="M95.1,27c0,.4.3.8.9,1.1,1.3.6,3.3.6,4.6,0,.7-.3,1-.7,1-1.1v.5c0,.4-.4.8-1,1.1-1.3.6-3.3.6-4.6,0-.6-.3-.9-.7-.9-1.1v-.5h0Z"/>
                  </g>
                  <g class="cls-9">
                    <path class="cls-7" d="M95.1,27.5h0c0,.4.3.8.9,1.1,1.3.6,3.3.6,4.6,0,.7-.3,1-.7,1-1.2h0c0,.4-.4.8-1,1.1-1.3.6-3.3.6-4.6,0-.6-.3-.9-.7-.9-1.1h0Z"/>
                  </g>
                </g>
                <path class="cls-4" d="M100.6,25.9c1.3.6,1.3,1.6,0,2.2-1.3.6-3.3.6-4.6,0s-1.3-1.6,0-2.2c1.3-.6,3.3-.6,4.6,0Z"/>
              </g>
              <g class="cls-20">
                <g class="cls-20">
                  <g class="cls-20">
                    <path class="cls-29" d="M95.3,26.5c0-.2.4-.4.7-.6,1.2-.6,3.2-.6,4.5,0,.4.2.6.4.8.6l-1.6-2.3c0,0-.2-.3-.4-.3-.6-.3-1.5-.3-2.1,0-.1,0-.3.3-.3.3l-1.6,2.3h0Z"/>
                  </g>
                </g>
                <path class="cls-39" d="M96.1,25.9c1.2-.6,3.2-.6,4.5,0,1.2.6,1.2,1.6,0,2.2s-3.2.6-4.5,0c-1.2-.6-1.2-1.6,0-2.2Z"/>
                <g class="cls-20">
                  <g class="cls-20">
                    <path class="cls-29" d="M96.1,28.2h0c-.9-.4-1.2-1.1-.8-1.6l1.6-2.3c-.2.2,0,.5.4.7l-1.2,3.1h0Z"/>
                  </g>
                  <path class="cls-29" d="M97,24.8h0v-.3s-.2.2-.2.2h0Z"/>
                </g>
                <g class="cls-20">
                  <g class="cls-20">
                    <path class="cls-29" d="M101.4,26.5c.4.5.2,1.1-.7,1.5-1.2.6-3.2.6-4.5,0l1.2-3.1c.6.3,1.5.3,2.1,0,.3-.2.5-.5.3-.7l1.6,2.3h0Z"/>
                  </g>
                </g>
                <path class="cls-39" d="M97.3,23.9c.6-.3,1.5-.3,2.1,0s.6.7,0,1-1.5.3-2.1,0-.6-.7,0-1Z"/>
                <path class="cls-38" d="M97.7,24.1c.4-.2.9-.2,1.3,0,.3.2.3.4,0,.6-.4.2-.9.2-1.3,0-.3-.2-.3-.4,0-.6Z"/>
                <g class="cls-8">
                  <path class="cls-24" d="M99,24.8c0,.2-.3.2-.5.2.3,0,.6-.1.8-.2.6-.2.5-.7,0-.9-.4-.1-.9-.1-1.4-.1.4,0,.8.1,1.1.2.5.2.5.6,0,.9h0Z"/>
                </g>
              </g>
              <g class="cls-20">
                <g class="cls-20">
                  <g class="cls-20">
                    <path class="cls-37" d="M82.8,20.9c0,.4.3.8.9,1.1,1.3.6,3.3.6,4.6,0,.7-.3,1-.7,1-1.1v.5c0,.4-.4.8-1,1.1-1.3.6-3.3.6-4.6,0-.6-.3-.9-.7-.9-1.1v-.5h0Z"/>
                  </g>
                  <g class="cls-9">
                    <path class="cls-7" d="M82.8,21.3h0c0,.4.3.8.9,1.1,1.3.6,3.3.6,4.6,0,.7-.3,1-.7,1-1.2h0c0,.4-.4.8-1,1.1-1.3.6-3.3.6-4.6,0-.6-.3-.9-.7-.9-1.1h0Z"/>
                  </g>
                </g>
                <path class="cls-4" d="M88.4,19.8c1.3.6,1.3,1.6,0,2.2-1.3.6-3.3.6-4.6,0s-1.3-1.6,0-2.2c1.3-.6,3.3-.6,4.6,0Z"/>
              </g>
              <g class="cls-20">
                <g class="cls-20">
                  <g class="cls-20">
                    <path class="cls-29" d="M83,20.3c0-.2.4-.4.7-.6,1.2-.6,3.2-.6,4.5,0,.4.2.6.4.8.6l-1.6-2.3c0,0-.2-.3-.4-.3-.6-.3-1.5-.3-2.1,0-.1,0-.3.3-.3.3l-1.6,2.3h0Z"/>
                  </g>
                </g>
                <path class="cls-39" d="M83.8,19.7c1.2-.6,3.2-.6,4.5,0,1.2.6,1.2,1.6,0,2.2s-3.2.6-4.5,0c-1.2-.6-1.2-1.6,0-2.2Z"/>
                <g class="cls-20">
                  <g class="cls-20">
                    <path class="cls-29" d="M83.8,22h0c-.9-.4-1.2-1.1-.8-1.6l1.6-2.3c-.2.2,0,.5.4.7l-1.2,3.1h0Z"/>
                  </g>
                  <path class="cls-29" d="M84.7,18.6h0v-.3s-.2.2-.2.2h0Z"/>
                </g>
                <g class="cls-20">
                  <g class="cls-20">
                    <path class="cls-29" d="M89.1,20.3c.4.5.2,1.1-.7,1.5-1.2.6-3.2.6-4.5,0l1.2-3.1c.6.3,1.5.3,2.1,0,.3-.2.5-.5.3-.7l1.6,2.3h0Z"/>
                  </g>
                </g>
                <path class="cls-39" d="M85,17.8c.6-.3,1.5-.3,2.1,0s.6.7,0,1-1.5.3-2.1,0-.6-.7,0-1Z"/>
                <path class="cls-38" d="M85.4,18c.4-.2.9-.2,1.3,0,.3.2.3.4,0,.6-.4.2-.9.2-1.3,0-.3-.2-.3-.4,0-.6Z"/>
                <g class="cls-8">
                  <path class="cls-24" d="M86.7,18.6c0,.2-.3.2-.5.2.3,0,.6-.1.8-.2.6-.2.5-.7,0-.9-.4-.1-.9-.1-1.4-.1.4,0,.8.1,1.1.2.5.2.5.6,0,.9h0Z"/>
                </g>
              </g>
            </g>
          </g>
          <g class="cls-8">
            <path class="cls-24" d="M72,15.8c0,.3.4.6,1,.9l1.2-3.1c-.1,0-.3-.2-.3-.2h0l-1.7,2.4h-.2Z"/>
          </g>
          <g class="cls-8">
            <path class="cls-24" d="M94.9,27.1c0,.3.4.6,1,.9l1.2-3.1c-.1-.1-.3-.2-.3-.2h0l-1.7,2.4h-.2Z"/>
          </g>
          <g class="cls-8">
            <path class="cls-24" d="M82.7,21c0,.3.4.6,1,.9l1.2-3.1c-.1-.1-.3-.2-.3-.2h0l-1.7,2.4h-.2Z"/>
          </g>
        </g>
        <path class="cls-41" d="M98.5,17.6c-8.7-2.1,14.6,8,14.6,8l15.4,9.5c-2.9-.9-8.7-3.4-9.3-3.6-5.2-1.8-7.3-2.2-9.7-1.5s-7.6,2.4-9.2,3.2c-2.4,1.1-2.4,2.8-2.3,4.7s.4,9.6,1,21.2c.2,10.9,4.5,23.5,4.5,24.4s1,1.6,1,1.6l25.9-13.2c0-3.9,1-12.3,1.2-13,1.6-5.8,5.1-4.5,5.1-4.5,20.1-15.9,21.2,1.1,21.2,1.1l7-4s2-10.6-1.7-18.4-31.5-16.9-35.2-17.6c-6.5-1.3-18.7,4.7-29.4,2.1Z"/>
        <path class="cls-12" d="M157.8,54.8s.3,3.1.8,4.7c.2.7,1.3,1.5,3.1.7,2.9-1.3,4.2-2,4.3-4.1s0-4.4,0-4.4h0,0c0-2-1-2-1.2-2,0,1.6-.8,1.5-1.9,2.3l-5.1,2.8Z"/>
        <g>
          <polygon class="cls-28" points="129 68.4 126.1 68.3 125.8 68.9 127.8 69 127 70.4 127.9 70.4 129 68.4"/>
          <polygon class="cls-28" points="124.9 70.3 122 70.3 121.7 70.9 123.7 70.9 122.9 72.3 123.8 72.3 124.9 70.3"/>
          <polygon class="cls-28" points="120.9 72.3 117.9 72.2 117.6 72.8 119.6 72.8 118.8 74.2 119.7 74.2 120.9 72.3"/>
          <polygon class="cls-28" points="116.8 74.2 113.8 74.2 113.5 74.7 115.5 74.8 114.7 76.2 115.6 76.2 116.8 74.2"/>
          <polygon class="cls-28" points="112.7 76.1 109.7 76.1 109.4 76.7 111.4 76.7 110.6 78.1 111.5 78.1 112.7 76.1"/>
          <polygon class="cls-28" points="108.6 78.1 105.6 78 105.3 78.6 107.3 78.6 106.5 80 107.4 80 108.6 78.1"/>
        </g>
        <g>
          <path class="cls-22" d="M165.7,47c-1.1.8-1.1.7-2.2,1.1-6.4,2.4-6.2-5-3.8-5.9,1.7-.7,3.3-2.8,4.1-4.7.7-1.9.8-1.4,1.2-.6,0,0,1.9,9.2.8,10.1Z"/>
          <path class="cls-18" d="M165,37.3c1.1,2.2,1.6,8.4.6,9.2-.5.5-1.4.8-2.5,1.2-5.4,1.7-5.2-4.5-3.1-5.3,1.5-.6,3.3-2.9,4.1-4.5s1-.6,1-.6Z"/>
          <path class="cls-21" d="M160.5,42c.2-.1.9-.6,1.7-1.4,0,1.7-.3,5.1-.3,7.4-.8,0-1.6,0-2.2-.5l.9-5.2v-.2Z"/>
          <path class="cls-21" d="M163.7,47.5c-.4.1-.5.1-.9.3v-8c.5-.5.3-.3.8-1.1,0,1.4.6,6.4.8,8.5,0,0-.3.1-.6.2Z"/>
        </g>
        <path class="cls-19" d="M160.5,30.4c-2.8-2.4-8.4-2.1-16.1.7-8.8,3.2-15.7,3.9-15.7,3.9"/>
        <path d="M86.2,79.4l-4.2,4.2-2.4,3.6-.9,4.5,19.9-9.3,6.3,3.2s.5-6.2-3.3-9l-7.3-.9-8,3.6h0Z"/>
        <g>
          <path class="cls-40" d="M77.4,102.6c0,.1.2.3.2.3l.2.2c0,.2.3.3.4.4h0c.2.2.4.4.6.5,1.7,1.3,4.3,2.7,5.3,3.2,2,1.1,4.3,1.9,6.9,1.1,2.2-.6,12.2-24.6,12.2-24.6,0,0-2-3.9-9.4-5.8-.3,0-.6,0-.9,0-1.7-.5-3.9-.2-6.3,1.2-5.9,3.4-10.6,11.7-10.6,18.4s.5,4.1,1.5,5.4v-.2Z"/>
          <path class="cls-1" d="M83.4,101c0-6.8,4.7-15,10.6-18.4,5.9-3.4,10.7-.6,10.7,6.1s-4.7,15-10.6,18.4c-2.2,1.3-4.2,1.7-5.9,1.4-2.9-.5-4.8-3.2-4.8-7.4h0Z"/>
          <path class="cls-31" d="M87.5,99.1c0-4.2,3-9.4,6.7-11.5,1-.6.7-.9,3-.9s3.8,1.9,3.8,4.8c0,4.2-3,9.4-6.7,11.5-1,.6-2.1.9-3,.9-2.3,0-3.8-1.8-3.8-4.8Z"/>
          <path class="cls-13" d="M99.2,87.2h0c1.1.8,1.8,2.3,1.8,4.3,0,4.3-3,9.5-6.7,11.6-1,.6-2.2.9-3,.9s-1.6-.3-2.2-.8c10.7-5.8,10.1-16,10.1-16Z"/>
          <path class="cls-33" d="M87.8,96.9c0,1.3.5,2.3,1.3,2.8h0c.2.2,2.4,1.2,2.4,1.2l1.1-1.7c2.1-1.4,3.8-4.4,3.8-6.9h0l.6-1.8-2.2-1.1h0q-.3-.2-.9-.2c-.6,0-1.2.2-1.9.6-2.2,1.3-4.1,4.6-4.1,7.2h-.1Z"/>
          <path class="cls-14" d="M94.6,100.5c-.6.4-.4.6-1.9.6s-2.5-1.2-2.5-3.1c0-2.7,1.8-5.9,4.1-7.2.6-.4.4-.6,1.9-.6s2.5,1.2,2.5,3.1-1.9,5.9-4.2,7.2h0Z"/>
          <path class="cls-14" d="M87,99.1c0,3.2,1.7,5.3,4.3,5.3s2.2-.3,3.3-1c3.8-2.2,6.9-7.6,6.9-12,0-3.2-1.7-5.3-4.3-5.3s-2.2.3-3.3,1c-3.8,2.2-6.9,7.6-6.9,12ZM87.5,99.1c0-4.2,3-9.4,6.7-11.5,1-.6.7-.9,3-.9s3.8,1.9,3.8,4.8c0,4.2-3,9.4-6.7,11.5-1,.6-2.1.9-3,.9-2.3,0-3.8-1.8-3.8-4.8Z"/>
        </g>
        <path class="cls-6" d="M130.1,61.1c-1.4,4.8.3,10.7.3,10.7.9-8.1,1.8-12.8,9.6-18.9s16.2-3.3,18.2,4.8c0,0-.4-7.8-4.1-9.9s-7.5-3.4-15.5,1c-5.5,3.8-6.8,6.4-8.5,12.4Z"/>
        <g>
          <path class="cls-23" d="M119.9,31c-1.9-.8-5.4-1.8-6.2-2.3s-10.9-6.9-20.6-11.4c-9.1-4.3-18-6.5-16.9-6.4,5.5.7,13.6,1.3,24.9,6.1,14.1,6,19.7,11.6,26.6,17.5,0,0-5-2.2-7.8-3.4Z"/>
          <polygon class="cls-10" points="82.2 12.5 85.9 14.2 105.4 19 101.6 17.1 82.2 12.5"/>
          <polygon class="cls-10" points="89.9 15.7 93.7 17.5 111.5 22.1 107.6 20.2 89.9 15.7"/>
        </g>
        <g>
          <polygon class="cls-3" points="108.5 86.8 104.4 84.5 104.5 85.5 108.5 87.8 108.5 86.8"/>
          <g>
            <polygon class="cls-3" points="108.5 86.8 108.5 87.8 134.7 74.5 134.6 73.6 108.5 86.8"/>
            <polygon class="cls-12" points="130.4 71.6 134.7 73.6 108.5 86.8 104.4 84.6 130.4 71.6"/>
          </g>
        </g>
        <g>
          <g>
            <polygon class="cls-27" points="55 37.6 55 59.8 105.3 71.4 105.3 62.9 55 37.6"/>
            <polygon class="cls-42" points="54 38.7 53.2 56.2 103.4 78.8 103.5 63.5 54 38.7"/>
          </g>
          <polygon class="cls-27" points="19.2 63.5 19.2 77.8 55 59.9 55 37.6 33.7 48.6 19.2 63.5"/>
          <polygon class="cls-42" points="20.6 64.3 22.4 75.5 55 61.5 55 39.3 35.1 49.4 20.6 64.3"/>
          <g>
            <path class="cls-15" d="M65.1,100.9l-1.7.8h.4s5.4,2.7,5.4,2.7v2s1.7.5,1.7.5v-3.4s-5.4-2.7-5.4-2.7h-.4s0,0,0,0Z"/>
            <path class="cls-15" d="M74.2,100.5l1.7.8h-.4s-6.2,3.1-6.2,3.1v2s-1.7.5-1.7.5v-3.4s6.2-3.1,6.2-3.1h.4,0Z"/>
            <path class="cls-25" d="M63.3,104.1c0,.3.2.7.6.9l4.1,2c.8.4,1.8.4,2.6,0l4.9-2.4c.3,0,.6-.6.6-.9v-2.1c0-.3-.3-.5-.6-.3l-6.2,3.1-5.4-2.7c-.3-.2-.6,0-.6.3v2.1Z"/>
          </g>
          <g>
            <g>
              <path class="cls-25" d="M23.6,75.5l-4.6,2.3v3.4s4.6-2.3,4.6-2.3c.3,0,.6-.6.6-.9v-2.1c0-.3-.3-.5-.6-.3h0Z"/>
              <path class="cls-15" d="M17.4,77.1l-1.7.8h.4s5.4,2.7,5.4,2.7v2s1.7.5,1.7.5v-3.4s-5.4-2.7-5.4-2.7h-.4s0,0,0,0Z"/>
              <path class="cls-15" d="M24.1,75.6h-.4s-6.2,3.1-6.2,3.1v1.2s-1.7.5-1.7.5v-2.5s6.2-3.1,6.2-3.1h.4s1.7.8,1.7.8Z"/>
              <path class="cls-25" d="M15.6,78.4v2.1c0,.3.2.7.6.9l4.5,2.2c.8.4,1.4.2,2.2-.2l.4-.2v-3.4s-1.7.8-1.7.8l-5.4-2.7c-.3-.2-.6,0-.6.3v.2Z"/>
            </g>
            <g>
              <path class="cls-25" d="M23.2,79.7v3.3s2.9-1.5,2.9-1.5c.3,0,.6-.6.6-.9v-2.1c0-.3-.3-.5-.6-.3l-2.9,1.5Z"/>
              <path class="cls-15" d="M26.7,78.2h-.4s-2.9,1.5-2.9,1.5l-1.7-.8,2.9-1.5h.4s1.7.8,1.7.8Z"/>
            </g>
          </g>
          <polygon class="cls-36" points="94.6 67.6 67.1 90.2 21.9 64.4 55 47.8 94.6 67.6"/>
          <polygon class="cls-27" points="20.6 62.2 20.6 76.5 70.9 101.7 70.9 87.5 20.6 62.2"/>
          <polygon class="cls-27" points="67.9 87.4 67.9 88.7 103.6 70.8 103.4 61.9 82.4 72.5 67.9 87.4"/>
          <polygon class="cls-34" points="69.6 88.5 69.6 102.9 77.2 98.9 79.6 86.7 91.2 76.5 100.8 76.5 103.9 80.4 104.5 85.3 105.3 84.9 105.3 62.9 84.1 73.6 69.6 88.5"/>
          <polygon class="cls-42" points="19.2 63.4 19.2 77.6 69.6 102.8 69.6 88.6 19.2 63.4"/>
          <g>
            <polygon class="cls-32" points="54.3 23.1 44.6 44.6 43.2 43.7 51.1 23.4 53 22.2 54.3 23.1"/>
            <polygon class="cls-26" points="54.1 24.1 50.2 41.7 44.6 44.6 52.4 24.2 54.3 23.1 54.1 24.1"/>
            <g>
              <polygon class="cls-26" points="99.3 65.8 93 69 86.4 40.7 88.8 39.6 99.3 65.8"/>
              <polygon class="cls-32" points="86.4 40.7 51.1 23.4 50.6 24.4 85 41.4 91.1 68 93 69 86.4 40.7"/>
              <polygon class="cls-26" points="87.4 41.2 51.1 23.4 53.2 22.1 88.8 39.5 87.4 41.2"/>
            </g>
          </g>
          <path class="cls-6" d="M77.4,98.9c1.2-7.3,2.8-9.5,7.1-15.2,5.2-6.8,15.2-8.4,18.4-3.9.7.9,1.5,3.5,1.5,5.5,0,0,.5-3.2-1-6.5s-4.8-5.3-9.7-4.8c-5,.6-10,3.9-12.6,7.9-4.4,6.7-3.9,13.5-3.7,17Z"/>
        </g>
        <g>
          <g>
            <path class="cls-16" d="M104,47.4c.1,1.7.6,6.6,6.8,4.2h0l17.4-9c.4-.2.2-4.2.2-4.2-1-.6-7.4-4.4-13.1-4.6-1.4-.1-3.3,0-5.1.8s-6.2,12.8-6.2,12.8Z"/>
            <path class="cls-23" d="M111.3,50.1h0l16.9-8.7.3-2.6c-5.8-2.7-12.6-6.5-18.1-4.3-4.5,1.8-4,1.8-5.7,2.7-.6.4-.6.7-.7,1v.4s-.1,6,0,8.6c.3,3.7,3.5,5.2,7.3,2.9Z"/>
          </g>
          <g>
            <path class="cls-17" d="M127.7,34.3s1.1,3.7,2.2,6.5v.4c0,.5.2.9.6,1.2.4,1,.8,1.8,1.1,1.8.9.2,2.3-.4,2.6-.5s.6-.3.6-.6v-6.5c0-.6-.4-1.1-1.1-1.4l-2.7-1.1h-.3c-.6-.1-2.6-.4-3,.3h0Z"/>
            <path class="cls-2" d="M127.7,34.7v6.9c0,.6.5,1.2,1.2,1.5l2.8,1.1c.5.2,1.2,0,1.2-.6v-6.9c0-.6-.5-1.2-1.2-1.5l-2.9-1.1c-.6-.2-1.2,0-1.2.6h.1Z"/>
          </g>
          <polygon class="cls-10" points="109.4 35 108.3 35.5 123.3 44 124.7 43.2 109.4 35"/>
          <polygon class="cls-10" points="107.7 35.7 106.3 36.4 119.7 45.8 122.8 44.2 107.7 35.7"/>
        </g>
        <g>
          <path class="cls-11" d="M108.6,74.1c-.3-.9.7-3.3,2.7-6.5h-.8c-2.3,3.8-3.5,6.6-3.2,7.6.4,1.2,3-.5,6.5-3.9h0c-2.8,2.6-4.8,3.8-5.1,2.8h0Z"/>
          <path class="cls-11" d="M130.8,46c-.5-1.5-2.7-.6-7.7,4.8.2.2.4.4.6.6,3.8-4,5-3.9,5.4-2.7.5,1.4-.9,4.7-5.5,10.9h0c5.6-7.3,7.7-11.9,7.1-13.6h0Z"/>
          <path class="cls-11" d="M107.7,62.9c.4-4.3,4.5-9.6,9.2-11.8,4.7-2.2,8.1-.6,7.6,3.7-.4,4.3-4.5,9.6-9.2,11.8s-8,.5-7.6-3.8h0ZM113.1,54.6l.8,7.4,2.6-10c-1.2.6-2.3,1.5-3.4,2.6h0ZM115.9,56.4l-1.3,5.2,1.8-.8-.4-4.3h0ZM117.9,60l2.3-8.9c-.9,0-2,0-3.2.6l.9,8.3h0ZM112.2,62.7l-.4-4.3-1.3,5.2,1.7-.8h0ZM122.1,58.8c.5-1.1.8-2.2,1-3.3.2-2.1-.5-3.5-1.8-4.2l.8,7.5h0ZM120.4,58.8l-.4-4.3-1.3,5.2,1.7-.8h0ZM120.5,59.6l-2.1,1-.3,1.1.3,2.2c.8-.8,1.6-1.6,2.3-2.6l-.2-1.7h0ZM112.6,66.7l-.3-3.2-2.1,1-.3,1.1c.6.8,1.5,1.1,2.7,1.1h0ZM116.4,61.6l-2.1,1-1.1,4.1c.7,0,1.4-.3,2.1-.7s.9-.5,1.4-.8l-.3-3.6h0ZM111.8,56.1c-1.4,1.9-2.4,4.1-2.6,6.1s0,2,.3,2.7l2.3-8.8h0Z"/>
        </g>
      </g>
    </g>
  </g>
</svg>