<?xml version="1.0" encoding="UTF-8"?>
<svg xmlns="http://www.w3.org/2000/svg" version="1.1" viewBox="0 0 180 120">
  <defs>
    <style>
      .cls-1 {
        fill: #3f3f3f;
      }

      .cls-2 {
        fill: #c6f3f7;
      }

      .cls-3 {
        fill: #2b2b2b;
      }

      .cls-4 {
        fill: #7e8082;
      }

      .cls-5 {
        fill: #efb206;
      }

      .cls-6 {
        fill: gray;
      }

      .cls-7 {
        fill: #414042;
      }

      .cls-8 {
        mix-blend-mode: hard-light;
      }

      .cls-8, .cls-9, .cls-10 {
        opacity: .2;
      }

      .cls-11 {
        fill: #da291c;
        fill-rule: evenodd;
      }

      .cls-9 {
        mix-blend-mode: multiply;
      }

      .cls-12 {
        fill: #70706e;
      }

      .cls-13 {
        fill: #777f7e;
      }

      .cls-14 {
        fill: #aec1bf;
      }

      .cls-15 {
        fill: #f94c08;
      }

      .cls-16 {
        fill: #485966;
      }

      .cls-17 {
        fill: #af7d25;
      }

      .cls-18 {
        fill: #b3f1ff;
      }

      .cls-19 {
        stroke: #ba6c06;
        stroke-width: .6px;
      }

      .cls-19, .cls-20 {
        fill: none;
        stroke-miterlimit: 10;
      }

      .cls-21, .cls-10, .cls-22 {
        isolation: isolate;
      }

      .cls-23 {
        fill: #a0a0a0;
      }

      .cls-24 {
        fill: #00a1e9;
      }

      .cls-25, .cls-10, .cls-22 {
        fill: #fff;
      }

      .cls-26 {
        fill: #b23606;
      }

      .cls-27 {
        fill: #144fc6;
      }

      .cls-28 {
        fill: #724e0f;
      }

      .cls-29 {
        fill: #204a96;
      }

      .cls-30 {
        fill: #f6931e;
      }

      .cls-31 {
        fill: #e09c05;
      }

      .cls-32 {
        fill: #9a9e9d;
      }

      .cls-33 {
        fill: #002151;
      }

      .cls-34 {
        fill: #859392;
      }

      .cls-20 {
        stroke: gray;
        stroke-width: 1.3px;
      }

      .cls-35 {
        fill: #eaae06;
      }

      .cls-36 {
        fill: #424242;
      }

      .cls-37 {
        fill: #0a2b77;
      }

      .cls-38 {
        fill: #929497;
      }

      .cls-39 {
        fill: #e88b1c;
      }

      .cls-40 {
        fill: #d47f1a;
      }

      .cls-41 {
        fill: #333;
      }

      .cls-42 {
        fill: #ffc200;
      }

      .cls-43 {
        fill: #c18816;
      }

      .cls-22 {
        opacity: .5;
      }
    </style>
  </defs>
  <!-- Generator: Adobe Illustrator 28.7.1, SVG Export Plug-In . SVG Version: 1.2.0 Build 142)  -->
  <g class="cls-21">
    <g id="Layer_1">
      <g>
        <path class="cls-36" d="M86.4,78.2h0q0,.2,0,0Z"/>
        <path class="cls-36" d="M86.4,78.2h0Z"/>
        <polygon points="26.2 50.6 22.8 54 21.8 60.8 30.7 56.9 49.3 67.8 46.4 56.5 34.6 48.5 26.2 50.6"/>
        <g>
          <path class="cls-41" d="M50.8,78c.9-1.3,1.6-3.1,1.6-5.4,0-6.9-4.8-15.2-10.8-18.9-2.4-1.4-5.8-1.5-7.4-1.4-7.6,1.9-9.6,5.9-9.6,5.9,0,0,10.1,24.5,12.3,25.2,2.7.7,4.9,0,7.1-1,3.1-1.6,5.7-3.6,6.7-4.5Z"/>
          <path class="cls-1" d="M44.8,76.4c0,4.3-2.1,7.1-5,7.6-1.8.4-3.8,0-6-1.4-6-3.4-10.8-12-10.8-18.9s5-9.6,10.9-6.1,10.8,12,10.8,18.9Z"/>
          <path class="cls-32" d="M36.7,79.2c-.9,0-2-.4-3.1-.9-3.8-2.2-6.8-7.4-6.8-11.8s1.4-4.9,3.8-4.9,2,.4,3.1.9c3.8,2.2,6.8,7.4,6.8,11.8s-1.4,4.9-3.8,4.9Z"/>
          <path class="cls-13" d="M38.9,78.5c-.5.5-1.4.7-2.4.7s-2-.4-3.1-.9c-3.8-2.2-6.8-7.4-6.8-11.8s.7-3.6,1.8-4.3h0s-.6,10.3,10.2,16.4h.2s0,0,0,0Z"/>
          <path class="cls-34" d="M40.1,72.2c0-2.7-1.8-6-4.1-7.4-.7-.4-1.3-.5-2-.5h-.9s-2.2,1.1-2.2,1.1l.5,1.8h0c0,2.5,1.6,5.6,3.7,7.1l1.1,1.8s2.2-1.1,2.4-1.3h0c.9-.5,1.4-1.4,1.4-2.9v.4s0,0,0,0Z"/>
          <path class="cls-14" d="M33.4,75.8c-2.4-1.3-4.2-4.7-4.1-7.4s1.1-3.1,2.5-3.1,1.3.2,2,.5c2.4,1.3,4.2,4.7,4.1,7.4s-1.1,3.1-2.5,3.1-1.3-.2-2-.5Z"/>
          <path class="cls-14" d="M34.1,62c-1.1-.7-2.4-1.1-3.3-1.1-2.7,0-4.3,2.2-4.3,5.4s3,10,7,12.4c1.1.7,2.4,1.1,3.3,1.1,2.7,0,4.3-2.2,4.3-5.4s-3-10-7-12.4ZM36.7,79.2c-.9,0-2-.4-3.1-.9-3.8-2.2-6.8-7.4-6.8-11.8s1.4-4.9,3.8-4.9,2,.4,3.1.9c3.8,2.2,6.8,7.4,6.8,11.8s-1.4,4.9-3.8,4.9Z"/>
        </g>
        <path class="cls-23" d="M22.1,34.1l2.1,1.2c0,.4,0-3,0-5.4s.3-2.2,1.8-3.5c1.6-1.5,7.9-4.3,12.9-6.4,6.2-2.6,8.1-2.6,10.5-2.8,2.9-.1,6.8,1,7.4,4.3l-4.8,1.3c-.4-2.3-1.8-3.5-3.9-3.5s-1.9-.3-7.7,2.5c-4.7,2.2-13.3,5.3-14.7,6.5-.8.7-.4,1.7-.4,2.4,0,2.5-3.3,3.1-3.3,3.2h0Z"/>
        <path class="cls-31" d="M58.5,34c-.2-.2-.4-.3-.5-.5,0,.4.6.6.5.5Z"/>
        <path class="cls-36" d="M61.5,61.1h0q0,.2,0,0Z"/>
        <path class="cls-36" d="M61.5,61.1h0Z"/>
        <path class="cls-5" d="M119.8,19.8c-.3-2.3-2-3.4-3.6-4.2s-7.7-3.6-7.7-3.6c0,0-2.7-.7-5.8,0-3.1.7-18.5,5-18.5,5,0,0,1.4.4-15.4,9.7-4,2.2-1.5,1.6-5.6,4.2,0,0-10.3,3.2-11.1,5.2.7-.3,7.9-2.9,8.8-3.2,5.2-1.9,8.6,0,8.6,0l6.7,2.8s1.4.7,2.2,2.5,1.2,5.3,1,16.4c-.2,10.9-3.9,30.2-3.9,31.1l42.2-22.9s3.1-9.4,3.3-22.6c0-9.4-.9-18.1-1.2-20.4Z"/>
        <g>
          <g>
            <g class="cls-21">
              <g class="cls-21">
                <g class="cls-21">
                  <path class="cls-38" d="M108.6,16.7v.5c0,.4-.3.8-.9,1.1-1.3.6-3.3.6-4.6,0-.6-.3-1-.7-1-1.1v-.5c0,.4.3.8,1,1.1,1.3.6,3.3.6,4.6,0,.6-.3.9-.7.9-1.1h0Z"/>
                </g>
                <g class="cls-9">
                  <path class="cls-7" d="M108.6,17c0,.4-.3.8-.9,1.1-1.3.6-3.3.6-4.6,0-.6-.3-1-.7-1-1.1h0c0,.5.3.9,1,1.2,1.3.6,3.3.6,4.6,0,.6-.3.9-.7.9-1.1h0Z"/>
                </g>
              </g>
              <path class="cls-4" d="M107.6,15.6c1.3.6,1.3,1.6,0,2.2s-3.3.6-4.6,0c-1.3-.6-1.3-1.6,0-2.2,1.3-.6,3.3-.6,4.6,0Z"/>
            </g>
            <g class="cls-21">
              <g class="cls-21">
                <g class="cls-21">
                  <path class="cls-30" d="M108.4,16.2l-1.6-2.3s-.2-.2-.3-.3c-.6-.3-1.5-.3-2.1,0-.2,0-.3.2-.4.3l-1.6,2.3c.2-.2.4-.4.8-.6,1.3-.6,3.3-.6,4.5,0,.3.2.6.4.7.6h0Z"/>
                </g>
              </g>
              <path class="cls-40" d="M107.6,17.7c-1.3.6-3.3.6-4.5,0s-1.2-1.6,0-2.2c1.3-.6,3.3-.6,4.5,0,1.2.6,1.2,1.6,0,2.2Z"/>
              <g class="cls-21">
                <g class="cls-21">
                  <path class="cls-30" d="M107.6,17.7l-1.2-3.1c.4-.2.6-.5.4-.7l1.6,2.3c.4.5,0,1.2-.8,1.6h0Z"/>
                </g>
                <path class="cls-30" d="M106.8,14.3l-.2-.2v.4h0c0-.1,0-.2,0-.2Z"/>
              </g>
              <g class="cls-21">
                <g class="cls-21">
                  <path class="cls-30" d="M102.3,16.1l1.6-2.3c-.2.2,0,.5.3.7.6.3,1.5.3,2.1,0l1.2,3.1c-1.3.6-3.3.6-4.5,0-.9-.4-1.1-1-.7-1.5h0Z"/>
                </g>
              </g>
              <path class="cls-40" d="M106.4,14.6c-.6.3-1.5.3-2.1,0s-.6-.7,0-1,1.5-.3,2.1,0,.6.7,0,1Z"/>
              <path class="cls-39" d="M106,14.4c-.4.2-.9.2-1.3,0-.3-.2-.3-.4,0-.6.4-.2.9-.2,1.3,0,.3.2.3.4,0,.6Z"/>
              <g class="cls-8">
                <path class="cls-25" d="M104.7,14.6c-.5-.3-.5-.7,0-.9.3-.1.7-.2,1.1-.2-.5,0-1,0-1.4.1-.5.2-.6.7,0,.9.2.1.5.2.8.2-.2,0-.3,0-.5-.2h0Z"/>
              </g>
            </g>
            <g>
              <g class="cls-21">
                <g class="cls-21">
                  <g class="cls-21">
                    <path class="cls-38" d="M85.6,28v.5c0,.4-.3.8-.9,1.1-1.3.6-3.3.6-4.6,0-.6-.3-1-.7-1-1.1v-.5c0,.4.3.8,1,1.1,1.3.6,3.3.6,4.6,0,.6-.3.9-.7.9-1.1h0Z"/>
                  </g>
                  <g class="cls-9">
                    <path class="cls-7" d="M85.6,28.4c0,.4-.3.8-.9,1.1-1.3.6-3.3.6-4.6,0-.6-.3-1-.7-1-1.1h0c0,.5.3.9,1,1.2,1.3.6,3.3.6,4.6,0,.6-.3.9-.7.9-1.1h0Z"/>
                  </g>
                </g>
                <path class="cls-4" d="M84.7,26.9c1.3.6,1.3,1.6,0,2.2s-3.3.6-4.6,0c-1.3-.6-1.3-1.6,0-2.2s3.3-.6,4.6,0Z"/>
              </g>
              <g class="cls-21">
                <g class="cls-21">
                  <g class="cls-21">
                    <path class="cls-30" d="M85.4,27.5l-1.6-2.3s-.2-.2-.3-.3c-.6-.3-1.5-.3-2.1,0-.2,0-.3.2-.4.3l-1.6,2.3c.2-.2.4-.4.8-.6,1.3-.6,3.3-.6,4.5,0,.3.2.6.4.7.6h0Z"/>
                  </g>
                </g>
                <path class="cls-40" d="M84.6,29.1c-1.3.6-3.3.6-4.5,0s-1.2-1.6,0-2.2c1.3-.6,3.3-.6,4.5,0s1.2,1.6,0,2.2Z"/>
                <g class="cls-21">
                  <g class="cls-21">
                    <path class="cls-30" d="M84.6,29.1l-1.2-3.1c.4-.2.6-.5.4-.7l1.6,2.3c.4.5,0,1.2-.8,1.6h0Z"/>
                  </g>
                  <path class="cls-30" d="M83.8,25.7l-.2-.2v.4h0c0-.1,0-.2,0-.2Z"/>
                </g>
                <g class="cls-21">
                  <g class="cls-21">
                    <path class="cls-30" d="M79.3,27.5l1.6-2.3c-.2.2,0,.5.3.7.6.3,1.5.3,2.1,0l1.2,3.1c-1.3.6-3.3.6-4.5,0-.9-.4-1.1-1-.7-1.5h0Z"/>
                  </g>
                </g>
                <path class="cls-40" d="M83.4,25.9c-.6.3-1.5.3-2.1,0s-.6-.7,0-1,1.5-.3,2.1,0,.6.7,0,1Z"/>
                <path class="cls-39" d="M83,25.7c-.4.2-.9.2-1.3,0-.3-.2-.3-.4,0-.6.4-.2.9-.2,1.3,0,.3.2.3.4,0,.6Z"/>
                <g class="cls-8">
                  <path class="cls-25" d="M81.7,25.9c-.5-.3-.5-.7,0-.9.3-.1.7-.2,1.1-.2-.5,0-1,0-1.4.1-.5.2-.6.7,0,.9.2.1.5.2.8.2-.2,0-.4,0-.5-.2h0Z"/>
                </g>
              </g>
              <g class="cls-21">
                <g class="cls-21">
                  <g class="cls-21">
                    <path class="cls-38" d="M97.9,21.9v.5c0,.4-.3.8-.9,1.1-1.3.6-3.3.6-4.6,0-.6-.3-1-.7-1-1.1v-.5c0,.4.3.8,1,1.1,1.3.6,3.3.6,4.6,0,.6-.3.9-.7.9-1.1h0Z"/>
                  </g>
                  <g class="cls-9">
                    <path class="cls-7" d="M97.9,22.2c0,.4-.3.8-.9,1.1-1.3.6-3.3.6-4.6,0-.6-.3-1-.7-1-1.1h0c0,.5.3.9,1,1.2,1.3.6,3.3.6,4.6,0,.6-.3.9-.7.9-1.1h0Z"/>
                  </g>
                </g>
                <path class="cls-4" d="M96.9,20.8c1.3.6,1.3,1.6,0,2.2s-3.3.6-4.6,0c-1.3-.6-1.3-1.6,0-2.2s3.3-.6,4.6,0Z"/>
              </g>
              <g class="cls-21">
                <g class="cls-21">
                  <g class="cls-21">
                    <path class="cls-30" d="M97.7,21.3l-1.6-2.3s-.2-.2-.3-.3c-.6-.3-1.5-.3-2.1,0-.2,0-.3.2-.4.3l-1.6,2.3c.2-.2.4-.4.8-.6,1.3-.6,3.3-.6,4.5,0,.3.2.6.4.7.6h0Z"/>
                  </g>
                </g>
                <path class="cls-40" d="M96.9,22.9c-1.3.6-3.3.6-4.5,0s-1.2-1.6,0-2.2c1.3-.6,3.3-.6,4.5,0s1.2,1.6,0,2.2Z"/>
                <g class="cls-21">
                  <g class="cls-21">
                    <path class="cls-30" d="M96.9,22.9l-1.2-3.1c.4-.2.6-.5.4-.7l1.6,2.3c.4.5,0,1.2-.8,1.6h0Z"/>
                  </g>
                  <path class="cls-30" d="M96.1,19.5l-.2-.2v.4h0c0-.1,0-.2,0-.2Z"/>
                </g>
                <g class="cls-21">
                  <g class="cls-21">
                    <path class="cls-30" d="M91.6,21.3l1.6-2.3c-.2.2,0,.5.3.7.6.3,1.5.3,2.1,0l1.2,3.1c-1.3.6-3.3.6-4.5,0-.9-.4-1.1-1-.7-1.5h0Z"/>
                  </g>
                </g>
                <path class="cls-40" d="M95.7,19.8c-.6.3-1.5.3-2.1,0s-.6-.7,0-1,1.5-.3,2.1,0,.6.7,0,1Z"/>
                <path class="cls-39" d="M95.3,19.6c-.4.2-.9.2-1.3,0-.3-.2-.3-.4,0-.6.4-.2.9-.2,1.3,0,.3.2.3.4,0,.6Z"/>
                <g class="cls-8">
                  <path class="cls-25" d="M94,19.7c-.5-.3-.5-.7,0-.9.3-.1.7-.2,1.1-.2-.5,0-1,0-1.4.1-.5.2-.6.7,0,.9.2.1.5.2.8.2-.2,0-.4,0-.5-.2h0Z"/>
                </g>
              </g>
            </g>
          </g>
          <g class="cls-8">
            <path class="cls-25" d="M108.5,16.8h0l-1.7-2.4h0s-.2.1-.3.2l1.2,3.1c.6-.3.9-.6,1-.9h-.2Z"/>
          </g>
          <g class="cls-8">
            <path class="cls-25" d="M85.6,28.1h0l-1.7-2.4h0s-.2.1-.3.2l1.2,3.1c.6-.3.9-.6,1-.9h-.2Z"/>
          </g>
          <g class="cls-8">
            <path class="cls-25" d="M97.8,22h0l-1.7-2.4h0s-.2.1-.3.2l1.2,3.1c.6-.3.9-.6,1-.9h-.2Z"/>
          </g>
        </g>
        <path class="cls-42" d="M52.8,16.5c-3.7.7-31.9,10.5-35.2,17.6s-1.7,18.4-1.7,18.4l7,4s1.1-17,21.2-1.1c0,0,3.5-1.3,5.1,4.5.2.7,1.2,9.1,1.2,13l25.9,13.2s1-1.5,1-1.6c0-.9,4.3-13.5,4.5-24.4.7-11.5,1-19.3,1-21.2s0-3.6-2.3-4.7-7.5-2.7-9.2-3.2c-2.5-.7-4.5-.3-9.7,1.5-.6.2-6.4,2.6-9.3,3.6l15.4-9.5s23.3-10.1,14.6-8-22.9-3.4-29.4-2.1Z"/>
        <path class="cls-12" d="M17.7,53.1c-1.1-.8-1.9-.7-1.9-2.3-.2,0-1.2,0-1.2,1.9v.2h0c0,0-.1,2.2,0,4.3s1.4,2.8,4.3,4.1c1.8.8,2.9,0,3.1-.7.5-1.6.8-4.7.8-4.7l-5.1-2.8Z"/>
        <g>
          <polygon class="cls-29" points="52.8 71.4 53.7 71.4 52.9 70 54.9 69.9 54.6 69.3 51.7 69.4 52.8 71.4"/>
          <polygon class="cls-29" points="56.9 73.3 57.8 73.3 57 71.9 59 71.9 58.7 71.3 55.8 71.3 56.9 73.3"/>
          <polygon class="cls-29" points="61 75.2 61.9 75.2 61.1 73.8 63.1 73.8 62.8 73.2 59.8 73.3 61 75.2"/>
          <polygon class="cls-29" points="65.1 77.2 66 77.2 65.2 75.8 67.2 75.7 66.9 75.2 63.9 75.2 65.1 77.2"/>
          <polygon class="cls-29" points="69.2 79.1 70.1 79.1 69.3 77.7 71.3 77.7 71 77.1 68 77.1 69.2 79.1"/>
          <polygon class="cls-29" points="73.3 81 74.2 81 73.4 79.6 75.4 79.6 75.1 79 72.1 79.1 73.3 81"/>
        </g>
        <g>
          <path class="cls-11" d="M75.7,58.3c-.8-2-4.4-2.7-8.7-2,.2.4.5.8.7,1.1,3.4-.3,6,.3,6.7,2,.7,1.8-1.5,4.3-5.4,6.1h0c4.7-1.9,7.6-4.9,6.7-7.1h0Z"/>
          <path class="cls-11" d="M52.7,53.4c-.3-3.8,3.2-5.2,7.8-2.9,4.6,2.2,8.5,7.2,8.7,11s-3.2,5.2-7.8,3-8.4-7.2-8.7-11h0ZM57,50.3l2.1,8.1,1.1-7.4c-1.2-.5-2.2-.7-3.1-.6h0ZM60.3,54.8l-.6,3.8,1.7.8-1.2-4.7h0ZM63,60.3l1-6.6c-1-1-2.1-1.9-3.3-2.5l2.3,9.1h0ZM57.4,57.5l-1.1-4.7-.6,3.8,1.7.8h0ZM67.2,63.2c.4-.6.5-1.4.5-2.4,0-1.9-1.1-3.9-2.5-5.8l2.1,8.2h0ZM65.4,61.5l-1.2-4.7-.6,3.8,1.7.8h0ZM65.7,62.4l-2.1-1v.8c0,0,.5,2.4.5,2.4.8,0,1.5,0,2-.4l-.5-1.9h0ZM58.5,61.9l-.8-3.4-2.1-1v.8c.7,1.3,1.7,2.6,2.9,3.6h0ZM61.7,60.4l-2.1-1-.4,3.1c.7.5,1.4,1,2.1,1.4s.9.4,1.3.5l-1-3.9h.1ZM55.9,50.5c-1.2.5-1.9,1.8-1.8,3.6s.4,2,.8,3l1-6.5h0Z"/>
          <path class="cls-11" d="M55.4,65.3c-.5-1.1.3-2.5,1.7-3.9h0c0,0-.3-.2-.4-.4h0l-.4-.4c-1.8,1.5-2.7,3.2-2.1,4.5.7,1.6,3.1,2.3,6.2,2.3h0c-2.5,0-4.4-.8-5-2.1h0Z"/>
        </g>
        <g>
          <path class="cls-23" d="M15.8,37.9c.3-.8.4-1.3,1.2.6.7,1.9,2.4,3.9,4.1,4.7,2.3,1,2.6,8.4-3.8,5.9s-1.1-.3-2.2-1.1c-1.1-.9.8-10.1.8-10.1Z"/>
          <path class="cls-18" d="M16.6,38.9c.7,1.6,2.5,3.8,4.1,4.5,2.1.9,2.2,7.1-3.1,5.3s-1.9-.7-2.5-1.2c-1.1-.8-.5-7.1.6-9.2,0,0,.2-1,1,.6Z"/>
          <path class="cls-22" d="M20.1,43.3l.9,5.2c-.6.4-1.3.6-2.2.5,0-2.2-.3-5.7-.3-7.4.8.8,1.5,1.3,1.7,1.4v.2Z"/>
          <path class="cls-22" d="M16.3,48.3c.1-2.1.7-7.1.8-8.5.5.8.3.6.7,1.1v8c-.3-.1-.4-.1-.8-.3s-.6-.2-.6-.2Z"/>
        </g>
        <path class="cls-19" d="M52,36s-6.9-.7-15.7-3.9c-7.7-2.8-13.3-3.1-16.1-.7"/>
        <path d="M94.4,80.3l-8-3.6-7.3.9c-3.8,2.8-3.3,9-3.3,9l6.3-3.2,19.9,9.3-.9-4.5-2.4-3.6-4.2-4.2h0Z"/>
        <g>
          <path class="cls-41" d="M103.1,103.8c1-1.3,1.5-3.1,1.5-5.4,0-6.7-4.7-15-10.6-18.4-2.4-1.4-4.6-1.7-6.3-1.2-.3,0-.6,0-.9,0-7.4,1.9-9.4,5.8-9.4,5.8,0,0,10,24,12.2,24.6,2.6.8,4.9,0,6.9-1.1,1-.5,3.6-1.9,5.3-3.2.2,0,.4-.3.6-.5h0c0,0,.3-.2.4-.4l.2-.2s0-.2.2-.3v.2Z"/>
          <path class="cls-1" d="M97.2,102.1c0,4.2-1.9,6.9-4.8,7.4-1.7.3-3.7,0-5.9-1.4-5.9-3.4-10.6-11.6-10.6-18.4s4.8-9.5,10.7-6.1c5.9,3.4,10.6,11.6,10.6,18.4h0Z"/>
          <path class="cls-32" d="M89.3,104.9c-.9,0-2-.3-3-.9-3.7-2.1-6.7-7.3-6.7-11.5s1.5-4.8,3.8-4.8,2,.3,3,.9c3.7,2.1,6.7,7.3,6.7,11.5s-1.5,4.8-3.8,4.8Z"/>
          <path class="cls-13" d="M91.5,104.2c-.6.5-1.4.8-2.2.8s-2-.3-3-.9c-3.7-2.1-6.7-7.3-6.7-11.6s.7-3.5,1.8-4.3h0s-.6,10.2,10.1,16Z"/>
          <path class="cls-34" d="M92.7,98c0-2.6-1.9-5.9-4.1-7.2-.7-.4-1.3-.6-1.9-.6s-.6,0-.9.2h0l-2.2,1.1.6,1.8h0c0,2.5,1.7,5.5,3.8,6.9l1.1,1.7s2.2-1,2.4-1.2h0c.8-.5,1.3-1.5,1.3-2.8h-.1Z"/>
          <path class="cls-14" d="M86.1,101.5c-2.3-1.3-4.2-4.5-4.2-7.2s1-3.1,2.5-3.1,1.3.2,1.9.6c2.3,1.3,4.2,4.5,4.1,7.2,0,1.9-1,3.1-2.5,3.1s-1.3-.2-1.9-.6h0Z"/>
          <path class="cls-14" d="M86.7,88.1c-1.1-.7-2.2-1-3.3-1-2.6,0-4.3,2.1-4.3,5.3s3.1,9.8,6.9,12c1.1.7,2.2,1,3.3,1,2.6,0,4.3-2.1,4.3-5.3s-3.1-9.8-6.9-12ZM89.3,104.9c-.9,0-2-.3-3-.9-3.7-2.1-6.7-7.3-6.7-11.5s1.5-4.8,3.8-4.8,2,.3,3,.9c3.7,2.1,6.7,7.3,6.7,11.5s-1.5,4.8-3.8,4.8Z"/>
        </g>
        <path class="cls-6" d="M42,49.8c-8-4.4-12.6-2.6-15.5-1s-4.1,9.9-4.1,9.9c2.1-8.1,11.7-10,18.2-4.8s8.7,10.9,9.6,18.9c0,0,1.7-5.9.3-10.7s-3-8.5-8.5-12.4Z"/>
        <g>
          <path class="cls-24" d="M52.9,35.5c6.9-5.9,12.5-11.5,26.6-17.5s19.4-5.4,24.9-6.1c1.1,0-7.7,2.1-16.9,6.4-9.7,4.6-19.6,10.8-20.6,11.4s-4.2,1.5-6.2,2.3c-2.9,1.2-7.8,3.4-7.8,3.4Z"/>
          <polygon class="cls-10" points="79.1 18.1 75.3 20 94.8 15.2 98.5 13.5 79.1 18.1"/>
          <polygon class="cls-10" points="73.1 21.2 69.2 23.1 87 18.5 90.8 16.7 73.1 21.2"/>
        </g>
        <g>
          <polygon class="cls-3" points="72.2 88.8 76.2 86.5 76.3 85.5 72.2 87.8 72.2 88.8"/>
          <g>
            <polygon class="cls-3" points="46 74.7 46 75.6 72.2 88.8 72.2 87.8 46 74.7"/>
            <polygon class="cls-12" points="76.3 85.6 72.2 87.8 46 74.7 50.3 72.7 76.3 85.6"/>
          </g>
        </g>
        <g>
          <g>
            <polygon class="cls-28" points="75.4 63.9 75.4 72.4 125.7 60.8 125.7 38.6 75.4 63.9"/>
            <polygon class="cls-43" points="77.2 64.5 77.3 79.8 127.5 57.2 126.7 39.7 77.2 64.5"/>
          </g>
          <polygon class="cls-28" points="147 49.6 125.7 38.6 125.7 60.9 161.5 78.8 161.5 64.5 147 49.6"/>
          <polygon class="cls-43" points="145.6 50.4 125.7 40.3 125.7 62.5 158.3 76.5 160.1 65.3 145.6 50.4"/>
          <g>
            <path class="cls-15" d="M115.6,101.8h-.4l-5.4,2.7v3.4l1.7-.5v-2l5.4-2.7h.4l-1.7-.8h0Z"/>
            <path class="cls-15" d="M106.5,101.4h.4l6.2,3.1v3.4l-1.7-.5v-2l-6.2-3.1h-.4l1.7-.8h0Z"/>
            <path class="cls-26" d="M117.4,103c0-.3-.3-.5-.6-.3l-5.4,2.7-6.2-3.1c-.3-.2-.6,0-.6.3v2.1c0,.3.3.8.6.9l4.9,2.4c.8.4,1.8.4,2.6,0l4.1-2c.4-.2.6-.6.6-.9v-2.1Z"/>
          </g>
          <g>
            <g>
              <path class="cls-26" d="M157.1,76.6c-.3-.2-.6,0-.6.3v2.1c0,.3.3.8.6.9l4.6,2.3v-3.4l-4.6-2.3h0Z"/>
              <path class="cls-15" d="M163.3,78h-.4l-5.4,2.7v3.4l1.7-.5v-2l5.4-2.7h.4l-1.7-.8h0Z"/>
              <path class="cls-15" d="M158.3,75.8h.4l6.2,3.1v2.5l-1.7-.5v-1.2l-6.2-3.1h-.4l1.7-.8Z"/>
              <path class="cls-26" d="M165.1,79.2c0-.3-.3-.5-.6-.3l-5.4,2.7-1.7-.8v3.4l.4.2c.8.4,1.4.6,2.2.2l4.5-2.2c.4-.2.6-.6.6-.9v-2.3Z"/>
            </g>
            <g>
              <path class="cls-26" d="M154.6,79.2c-.3-.2-.6,0-.6.3v2.1c0,.3.3.8.6.9l2.9,1.5v-3.3l-2.9-1.5Z"/>
              <path class="cls-15" d="M155.7,78.4h.4l2.9,1.5-1.7.8-2.9-1.5h-.4l1.7-.8Z"/>
            </g>
          </g>
          <polygon class="cls-37" points="125.7 48.8 158.8 65.4 113.6 91.2 86.1 68.6 125.7 48.8"/>
          <polygon class="cls-28" points="109.8 88.5 109.8 102.7 160.1 77.5 160.1 63.2 109.8 88.5"/>
          <polygon class="cls-28" points="98.3 73.5 77.3 62.9 77.1 71.8 112.8 89.7 112.8 88.4 98.3 73.5"/>
          <polygon class="cls-35" points="96.6 74.6 75.4 63.9 75.4 85.9 76.2 86.3 76.8 81.4 79.9 77.5 89.5 77.5 101.1 87.7 103.5 99.9 111.1 103.9 111.1 89.5 96.6 74.6"/>
          <polygon class="cls-43" points="111.1 89.6 111.1 103.8 161.5 78.6 161.5 64.4 111.1 89.6"/>
          <g>
            <polygon class="cls-33" points="127.7 23.2 129.6 24.4 137.5 44.7 136.1 45.6 126.4 24.1 127.7 23.2"/>
            <polygon class="cls-27" points="126.4 24.1 128.3 25.2 136.1 45.6 130.5 42.7 126.6 25.1 126.4 24.1"/>
            <g>
              <polygon class="cls-27" points="91.9 40.6 94.3 41.7 87.7 70 81.4 66.8 91.9 40.6"/>
              <polygon class="cls-33" points="87.7 70 89.6 69 95.7 42.4 130.1 25.4 129.6 24.4 94.3 41.7 87.7 70"/>
              <polygon class="cls-27" points="91.9 40.5 127.5 23.1 129.6 24.4 93.3 42.2 91.9 40.5"/>
            </g>
          </g>
          <path class="cls-6" d="M99.6,83c-2.6-4-7.6-7.3-12.6-7.9-4.9-.5-8.2,1.5-9.7,4.8s-1,6.5-1,6.5c0-2,.8-4.6,1.5-5.5,3.2-4.5,13.2-2.8,18.4,3.9s5.9,7.9,7.1,15.2c.2-3.5.7-10.3-3.7-17Z"/>
        </g>
        <g>
          <g>
            <path class="cls-16" d="M70.5,35.6c-1.8-.7-3.7-.9-5.1-.8-5.7.2-12.1,4-13.1,4.6,0,0-.2,4,.2,4.2l17.4,9h0c6.2,2.4,6.7-2.5,6.8-4.2,0,0-4.4-12.1-6.2-12.8Z"/>
            <path class="cls-24" d="M76.7,48.2c.1-2.6,0-8.6,0-8.6v-.4c0-.3-.2-.6-.7-1-1.6-1-1.2-.9-5.7-2.7-5.5-2.2-12.3,1.6-18.1,4.3l.3,2.6,16.9,8.7h0c3.8,2.3,7,.8,7.3-2.9Z"/>
          </g>
          <g>
            <path class="cls-17" d="M53,35.4c-.4-.7-2.4-.4-3-.3h-.3l-2.7,1.1c-.7.3-1.1.8-1.1,1.4v6.5c0,.3.3.5.6.6s1.7.7,2.6.5c.3,0,.7-.8,1.1-1.8.4-.3.6-.7.6-1.2v-.4c1.1-2.8,2.2-6.5,2.2-6.5h0Z"/>
            <path class="cls-2" d="M53.1,35.7c0-.5-.6-.8-1.2-.6l-2.9,1.1c-.7.3-1.2.9-1.2,1.5v6.9c0,.5.7.8,1.2.6l2.8-1.1c.7-.3,1.2-.9,1.2-1.5v-6.9h.1Z"/>
          </g>
          <polygon class="cls-10" points="56 44.2 57.4 45 72.4 36.5 71.3 36 56 44.2"/>
          <polygon class="cls-10" points="57.9 45.2 61 46.8 74.4 37.4 73 36.7 57.9 45.2"/>
        </g>
      </g>
      <rect class="cls-20" x="-40.5" y="-142.6" width="1920" height="960"/>
    </g>
  </g>
</svg>