<?xml version="1.0" encoding="UTF-8"?>
<svg xmlns="http://www.w3.org/2000/svg" version="1.1" viewBox="0 0 180 120">
  <defs>
    <style>
      .cls-1, .cls-2 {
        fill: none;
      }

      .cls-3 {
        fill: #3f3f3f;
      }

      .cls-4 {
        fill: #2b2b2b;
      }

      .cls-5 {
        fill: #444;
      }

      .cls-6 {
        fill: #7e8082;
      }

      .cls-7 {
        fill: #232323;
      }

      .cls-8 {
        fill: gray;
      }

      .cls-9 {
        fill: #414042;
      }

      .cls-10 {
        mix-blend-mode: hard-light;
      }

      .cls-10, .cls-11, .cls-12 {
        opacity: .2;
      }

      .cls-13 {
        fill: #da291c;
        fill-rule: evenodd;
      }

      .cls-11 {
        mix-blend-mode: multiply;
      }

      .cls-14 {
        fill: #ffd400;
      }

      .cls-15 {
        fill: #70706e;
      }

      .cls-16 {
        fill: #777f7e;
      }

      .cls-17 {
        fill: #aec1bf;
      }

      .cls-18 {
        fill: #f94c08;
      }

      .cls-19 {
        fill: #b27d12;
      }

      .cls-20 {
        fill: #485966;
      }

      .cls-21 {
        fill: #b3f1ff;
      }

      .cls-2 {
        stroke: #ba6c06;
        stroke-miterlimit: 10;
        stroke-width: .6px;
      }

      .cls-22 {
        fill: #db9b1b;
      }

      .cls-23, .cls-12, .cls-24 {
        isolation: isolate;
      }

      .cls-25 {
        fill: #a57516;
      }

      .cls-26 {
        fill: #989899;
      }

      .cls-27 {
        fill: #ffb600;
      }

      .cls-28 {
        fill: #00a1e9;
      }

      .cls-29, .cls-12, .cls-24 {
        fill: #fff;
      }

      .cls-30 {
        fill: #b23606;
      }

      .cls-31 {
        fill: #144fc6;
      }

      .cls-32 {
        fill: #666;
      }

      .cls-33 {
        fill: #724e0f;
      }

      .cls-34 {
        fill: #204a96;
      }

      .cls-35 {
        fill: #f6931e;
      }

      .cls-36 {
        fill: #9a9e9d;
      }

      .cls-37 {
        fill: #002151;
      }

      .cls-38 {
        fill: #859392;
      }

      .cls-39 {
        fill: #b3b3b3;
      }

      .cls-40 {
        fill: #424242;
      }

      .cls-41 {
        fill: #0a2b77;
      }

      .cls-42 {
        fill: #929497;
      }

      .cls-43 {
        fill: #e88b1c;
      }

      .cls-44 {
        fill: #2d2d2d;
      }

      .cls-45 {
        fill: #d47f1a;
      }

      .cls-46 {
        fill: #353535;
      }

      .cls-47 {
        fill: #ffc200;
      }

      .cls-48 {
        fill: #c18816;
      }

      .cls-24 {
        opacity: .5;
      }
    </style>
  </defs>
  <!-- Generator: Adobe Illustrator 28.7.1, SVG Export Plug-In . SVG Version: 1.2.0 Build 142)  -->
  <g class="cls-23">
    <g id="Layer_1">
      <g>
        <path class="cls-18" d="M152.8,57.6l5.5-.9,3.9,2.2c-.2,0-.5,1.2-.5,1.2l-2.9.2v2.2s-1.2-.8-1.2-.8l-4.8-4h0Z"/>
        <path class="cls-30" d="M152,58.1l.2.2.5,2.1c0,.4.3.9.7.9l4.2,2c1.1.6,1.8.5,2.7,0l1.4-.9c.3-.2.5-.4.5-.9v-2.2c0-.4-.4-.5-.7-.4s-2.8,1.4-2.8,1.4l-5.9-2.6c-.3,0-.7,0-.7.4h-.1Z"/>
      </g>
      <polygon class="cls-25" points="155.5 42.5 159.1 43.3 108.9 18 108.8 19.2 155.5 42.5"/>
      <polygon class="cls-33" points="73.2 29.4 73.4 51.6 93.3 21.5 110.7 18.9 108.9 18 92.6 20.3 73.2 29.4"/>
      <polygon class="cls-19" points="75.2 30.4 75.2 52.6 81.2 49.6 110.9 34.6 108.8 19.2 93.3 21.5 75.2 30.4"/>
      <polygon class="cls-22" points="155.5 42.5 157.4 59 109 34.8 108.8 19.2 155.5 42.5"/>
      <polygon class="cls-41" points="148.4 45.9 108.8 65.7 76.8 42.2 108.8 26.2 148.4 45.9"/>
      <polygon class="cls-25" points="123.8 52.7 119.8 51 120.4 53.4 121.8 75.8 132.9 59 159.1 43.3 156.5 42.4 141 44.6 123.8 52.7"/>
      <path class="cls-47" d="M141.6,45.7l-12.6,6.2,7.5,10.7c.9-.6,1.9-1.2,3-1.7,8.3-3.5,17.9-1.1,17.9-1.1l1.9-.9-.2-15.6-17.4,2.4h-.1Z"/>
      <polygon class="cls-48" points="73.2 29.4 73.2 51.6 123.7 76.8 123.5 54.6 73.2 29.4"/>
      <path d="M136.8,55.2l-4.2,4.2-2.4,3.4-1.4,6.9,21.3-10h7.2c0,0-1.5-4.2-5.3-7l-7.3-.9-8,3.6h0Z"/>
      <g>
        <path class="cls-7" d="M133.1,81.3c2.2,1.1,4.4,1.8,7.1,1.1,2.2-.7,12.2-25.1,12.2-25.1,0,0-1.7-4-9.3-6-1.6-.2-5-.1-7.4,1.3-6,3.6-10.4,10.7-10.5,17.6,0,2.2.1,3.6,1.1,5.1,1,.9,3.7,3.8,6.8,6Z"/>
        <path class="cls-3" d="M142.8,55.8c6-3.4,11,0,11.4,6.8s-4.3,15.3-10.3,18.7c-2.2,1.4-4.8,1.9-6.6,1.5-2.9-.5-6-3.1-6-7.4,0-9,5.5-16.2,11.5-19.6Z"/>
        <path class="cls-36" d="M136.7,73.2c0-4.4,3.1-9.6,6.9-11.8,1.1-.5.7-.9,3.1-.9s3.8.5,3.8,4.9-3.1,9.6-6.9,11.8c-1.1.5-2.2.9-3.1.9-2.4,0-3.8-.5-3.8-4.9Z"/>
        <path class="cls-16" d="M138.4,77.4h.2c10.8-6,10.3-16.3,10.3-16.3h0c1.1.7,1.8-.1,1.8,4.3s-3.1,9.6-6.9,11.8c-1.1.5-2.1.9-3.1.9s-1.9-.2-2.4-.7h0Z"/>
        <path class="cls-38" d="M137.1,71.1v-.4c0,1.5.5,2.4,1.4,2.9h0c.2.2,2.4,1.3,2.4,1.3l1.1-1.8c2.2-1.5,3.8-4.6,3.8-7.1h0l.5-1.8-2.2-1.1h-.9c-.7,0-1.3,0-2,.5-2.4,1.4-4.2,4.7-4.2,7.4h.1Z"/>
        <path class="cls-17" d="M141.7,75.1c-1.4,0-2.5-.4-2.5-3.1s1.8-6.1,4.2-7.4c.7-.3.6-.5,2-.5s2.5.4,2.5,3.1-1.8,6.1-4.2,7.4c-.7.3-.6.5-2,.5Z"/>
        <path class="cls-17" d="M136.1,73.2c0,3.2,1.6,5.4,4.3,5.4s2.2-.4,3.3-1.1c4-2.3,7.1-9.1,7.1-12.3s-1.6-5.4-4.3-5.4-2.2.4-3.3,1.1c-4,2.3-7.1,9.1-7.1,12.3ZM136.7,73.2c0-4.4,3.1-9.6,6.9-11.8,1.1-.5.7-.9,3.1-.9s3.8.5,3.8,4.9-3.1,9.6-6.9,11.8c-1.1.5-2.2.9-3.1.9-2.4,0-3.8-.5-3.8-4.9Z"/>
      </g>
      <g>
        <polygon class="cls-37" points="93.1 9 82.3 26.9 80.4 25.9 88.9 8.9 90.8 7.8 93.1 9"/>
        <polygon class="cls-31" points="92.6 9.6 88.7 23.8 82.5 26.8 90.9 9.8 92.9 8.6 92.6 9.6"/>
        <g>
          <polygon class="cls-31" points="137.2 47.9 130.9 51.1 124.2 26.3 126.6 25.1 137.2 47.9"/>
          <polygon class="cls-37" points="124.2 26.3 90.9 9.8 90.4 10.8 122.8 27 128.5 49.9 130.9 51.1 124.2 26.3"/>
          <polygon class="cls-31" points="125.1 26.7 88.9 8.9 90.9 7.6 126.5 25 125.1 26.7"/>
        </g>
      </g>
      <path class="cls-40" d="M89,61.5h0q0,.1,0,0Z"/>
      <path class="cls-40" d="M89,61.5h0Z"/>
      <path class="cls-1" d="M59.4,85h0Z"/>
      <path class="cls-1" d="M59.7,85h0Z"/>
      <path class="cls-1" d="M59.6,85h0Z"/>
      <path class="cls-1" d="M59.5,85h0Z"/>
      <path class="cls-1" d="M59.8,85h0Z"/>
      <path class="cls-1" d="M60.1,85.2h0Z"/>
      <path class="cls-1" d="M60.1,85.1h0Z"/>
      <path class="cls-1" d="M59.9,85.1h0Z"/>
      <path class="cls-1" d="M60,85.1h0Z"/>
      <path class="cls-1" d="M58.2,85h0Z"/>
      <path class="cls-1" d="M59.3,85h0Z"/>
      <path class="cls-1" d="M57.9,85h0,0Z"/>
      <path class="cls-1" d="M58.4,85h0Z"/>
      <path class="cls-1" d="M57.7,85.1h0Z"/>
      <path class="cls-1" d="M60.2,85.2h0Z"/>
      <path class="cls-1" d="M58.9,85h0Z"/>
      <path class="cls-1" d="M59.2,85h0Z"/>
      <path class="cls-1" d="M59.1,85h0Z"/>
      <path class="cls-1" d="M60.5,85.4h0Z"/>
      <path class="cls-1" d="M61,86h0Z"/>
      <path class="cls-1" d="M61.1,86.2h0Z"/>
      <path class="cls-1" d="M61.1,86.1h0Z"/>
      <path class="cls-1" d="M61,85.9h0Z"/>
      <path class="cls-1" d="M61.3,86.3h0,0Z"/>
      <path class="cls-1" d="M61.2,86.3h0Z"/>
      <path class="cls-1" d="M60.9,85.8h0Z"/>
      <path class="cls-1" d="M60.7,85.6h0Z"/>
      <path class="cls-1" d="M57.6,85.1h0Z"/>
      <path class="cls-1" d="M60.9,85.8h0Z"/>
      <path class="cls-1" d="M60.6,85.5h0Z"/>
      <path class="cls-1" d="M60.4,85.3h0Z"/>
      <path class="cls-1" d="M60.5,85.4h0Z"/>
      <path class="cls-1" d="M60.8,85.7h0Z"/>
      <path class="cls-1" d="M60.3,85.3h0Z"/>
      <path class="cls-1" d="M60.7,85.5h0Z"/>
      <path class="cls-1" d="M49.3,82.5h0Z"/>
      <path class="cls-1" d="M53.6,84.9h0Z"/>
      <path class="cls-1" d="M53.8,84.9h0Z"/>
      <path class="cls-1" d="M54,85h0Z"/>
      <path class="cls-1" d="M50.3,83.2h.2-.2Z"/>
      <path class="cls-1" d="M53.4,84.8h0Z"/>
      <path class="cls-1" d="M54.4,85.1h0Z"/>
      <path class="cls-1" d="M54.3,85.1h0Z"/>
      <path class="cls-1" d="M54.6,85.1h0Z"/>
      <path class="cls-1" d="M54.1,85h0Z"/>
      <path class="cls-1" d="M55.8,85.2h0Z"/>
      <path class="cls-1" d="M57.4,85.1h0Z"/>
      <path class="cls-1" d="M49.4,82.6h.1-.1Z"/>
      <path class="cls-1" d="M49.9,82.8c0,0,.2,0,.2,0,0,0-.2,0-.2,0Z"/>
      <path class="cls-1" d="M48.8,82.3h0Z"/>
      <path class="cls-1" d="M49.2,82.4h0Z"/>
      <path class="cls-1" d="M49.6,82.7h.1-.1Z"/>
      <path class="cls-1" d="M56.7,85.2h0Z"/>
      <path class="cls-1" d="M56.8,85.2h0Z"/>
      <path class="cls-1" d="M56.3,85.2h0Z"/>
      <path class="cls-1" d="M57,85.1h0Z"/>
      <path class="cls-1" d="M57.2,85.1h0Z"/>
      <path class="cls-1" d="M54.8,85.1h0Z"/>
      <path class="cls-1" d="M56.2,85.2h0Z"/>
      <path class="cls-1" d="M56.5,85.2h0Z"/>
      <path class="cls-1" d="M55.5,85.2h0Z"/>
      <path class="cls-1" d="M55.4,85.2h0Z"/>
      <path class="cls-1" d="M55.2,85.2h0Z"/>
      <path class="cls-1" d="M54.9,85.2h0Z"/>
      <path class="cls-1" d="M55.1,85.2h0Z"/>
      <path class="cls-1" d="M56,85.2h0Z"/>
      <path class="cls-1" d="M55.7,85.2h0Z"/>
      <g>
        <path class="cls-47" d="M22.4,56.6c.9-3,6.5-5.5,12.6-9.9,5.8-3.1,10.1-5.6,11.1-10.3,1.1-1.9,9.5-14.6,12-16.3,5.2-3.4,17.8-8.5,17.8-8.5.9-.2,2.1-.4,6.4,1.6,8.7,4.2,19.3,9.8,33.7,17.3,0,0,.5.5.6.8,4.5,5.7,5.6,33.1,1.5,44.1l-18.1,8.4-13.8-7.5-12.2,11.6,1,4.1c-.9.7-13,7.3-13.1,6.1-10.7.9-25.9-10.8-31.9-15.6l-8-9.1s-2.5-6.9.4-16.8Z"/>
        <g>
          <polygon class="cls-34" points="97.5 80.8 99.4 78 99.9 78.3 98.6 80.3 99.7 80.9 99.2 81.8 97.5 80.8"/>
          <polygon class="cls-34" points="101.1 79 103 76.3 103.5 76.6 102.2 78.5 103.4 79.2 102.8 80 101.1 79"/>
          <polygon class="cls-34" points="104.7 77.3 106.6 74.5 107.1 74.8 105.8 76.7 107 77.4 106.4 78.2 104.7 77.3"/>
          <polygon class="cls-34" points="108.3 75.5 110.2 72.8 110.7 73 109.4 75 110.6 75.7 110 76.5 108.3 75.5"/>
          <polygon class="cls-34" points="111.9 73.7 113.8 71 114.3 71.3 113 73.2 114.2 73.9 113.6 74.7 111.9 73.7"/>
          <polygon class="cls-34" points="115.5 72 117.4 69.2 117.9 69.5 116.6 71.4 117.8 72.1 117.2 72.9 115.5 72"/>
        </g>
        <path class="cls-32" d="M25.8,86.7c2.6,2.7,13.9,10.2,25.1,13.6s12.4,1.2,16.2-.3,5-1.5,5.5-2.9c1.3-3.4.5-6.8.5-6.8,0,0-4.5,2.8-6.6,3.3-4.3,1-8.2,0-14-1.8-6-1.9-13.1-5.1-17.4-7.4-4-2.1-11.5-8-13.5-12-1,5.3,0,9.8,4.2,14.3Z"/>
      </g>
      <g>
        <path class="cls-28" d="M84,59.2s4.5-7.3,6.5-11,3.1-5.2,4.4-7.6c.2-.6,0-1.1-.5-1.3-19-4.4-33.4-15-36.7-17.2-.5-.4-.8-.8-1.4,0-6.2,8.6-9.2,12.3-11.1,17.1-.4.5-.4,1.1,0,1.6,2.7,3.2,10.7,11.9,37.2,19,.7.2,1.2-.2,1.6-.7h0Z"/>
        <polygon class="cls-12" points="47.2 42.4 49.9 44.6 67.8 28.4 61.7 24.7 47.2 42.4"/>
        <polygon class="cls-12" points="50.9 45.3 52.1 46.1 71.2 30.3 69.1 29.3 50.9 45.3"/>
      </g>
      <g>
        <g class="cls-23">
          <g class="cls-23">
            <g class="cls-23">
              <path class="cls-42" d="M69.3,18.6c0,.4.4.7.9,1.1,1.2.7,3.2.7,4.5,0,.5-.2.9-.7.9-1.1v.5c0,.4-.4.7-.9,1.1-1.2.7-3.2.7-4.5,0-.5-.2-.9-.7-.9-1.1v-.5h0Z"/>
            </g>
            <g class="cls-11">
              <path class="cls-9" d="M69.3,19.2h0c0,.4.4.7.9,1.1,1.2.7,3.2.7,4.5,0,.5-.4.9-.8.9-1.3h0c0,.4-.4.7-.9,1.1-1.2.7-3.2.7-4.5,0-.5-.2-.9-.7-.9-1.1s0,.2,0,.2Z"/>
            </g>
          </g>
          <path class="cls-6" d="M74.7,17.3c1.3.8,1.2,1.7,0,2.4s-3.2.8-4.5,0-1.3-1.7,0-2.4c1.2-.7,3.2-.7,4.5,0Z"/>
        </g>
        <g class="cls-23">
          <g class="cls-23">
            <g class="cls-23">
              <path class="cls-42" d="M80.4,24.4c0,.4.4.7.9,1.1,1.2.7,3.2.7,4.5,0,.5-.2.9-.7.9-1.1v.5c0,.4-.4.7-.9,1.1-1.2.7-3.2.7-4.5,0-.5-.2-.9-.7-.9-1.1v-.5h0Z"/>
            </g>
            <g class="cls-11">
              <path class="cls-9" d="M80.4,24.9h0c0,.4.4.7.9,1.1,1.2.7,3.2.7,4.5,0,.5-.4.9-.8.9-1.3h0c0,.4-.4.7-.9,1.1-1.2.7-3.2.7-4.5,0-.5-.2-.9-.7-.9-1.1s0,.2,0,.2Z"/>
            </g>
          </g>
          <path class="cls-6" d="M85.8,23.1c1.3.8,1.3,1.7,0,2.4-1.2.7-3.2.7-4.5,0-1.3-.8-1.3-1.7,0-2.4,1.2-.7,3.2-.8,4.5,0Z"/>
        </g>
        <g>
          <g class="cls-23">
            <g class="cls-23">
              <g class="cls-23">
                <path class="cls-42" d="M92.9,30c0,.4.4.7.9,1.1,1.2.7,3.2.7,4.5,0,.5-.2.9-.7.9-1.1v.5c0,.4-.4.7-.9,1.1-1.2.7-3.2.7-4.5,0-.5-.2-.9-.7-.9-1.1v-.5h0Z"/>
              </g>
              <g class="cls-11">
                <path class="cls-9" d="M92.9,30.6h0c0,.4.4.7.9,1.1,1.2.7,3.2.7,4.5,0,.5-.4.9-.8.9-1.3h0c0,.4-.4.7-.9,1.1-1.2.7-3.2.7-4.5,0-.5-.2-.9-.7-.9-1.1s0,.2,0,.2Z"/>
              </g>
            </g>
            <path class="cls-6" d="M98.3,28.7c1.3.8,1.2,1.7,0,2.4s-3.2.7-4.5,0c-1.3-.8-1.3-1.7,0-2.4,1.2-.7,3.2-.7,4.5,0Z"/>
          </g>
          <g>
            <g>
              <g class="cls-23">
                <g class="cls-23">
                  <g class="cls-23">
                    <path class="cls-35" d="M69.6,17.9c0-.2.4-.4.7-.6,1.3-.6,3.3-.6,4.5,0,.4.1.6.4.8.6l-1.6-2.5c0-.1-.2-.3-.4-.3-.6-.3-1.5-.3-2.1,0-.1.1-.3.2-.3.3l-1.6,2.5h0Z"/>
                  </g>
                </g>
                <path class="cls-45" d="M70.4,17.3c1.3-.6,3.3-.6,4.5,0,1.2.6,1.2,1.7,0,2.3-1.3.6-3.3.6-4.5,0-1.2-.6-1.2-1.7,0-2.3Z"/>
                <g class="cls-23">
                  <g class="cls-23">
                    <path class="cls-35" d="M70.4,19.7h0c-.8-.5-1.2-1.1-.8-1.7l1.6-2.5c0,.3,0,.6.4.8l-1.2,3.3h0Z"/>
                  </g>
                  <path class="cls-35" d="M71.3,15.9h0s0-.2,0-.3l-.2.3h0Z"/>
                </g>
                <g class="cls-23">
                  <g class="cls-23">
                    <path class="cls-35" d="M75.6,17.9c.4.5.2,1.1-.7,1.6-1.3.6-3.3.6-4.5,0l1.2-3.3c.6.3,1.5.3,2.1,0,.3-.2.5-.5.3-.8l1.6,2.5h0Z"/>
                  </g>
                </g>
                <path class="cls-45" d="M71.5,15.1c.6-.3,1.5-.3,2.1,0s.6.8,0,1.1c-.6.3-1.5.3-2.1,0-.6-.3-.6-.8,0-1.1Z"/>
                <path class="cls-43" d="M72,15.4c.4-.2.9-.2,1.3,0,.3.1.3.4,0,.6-.4.2-.9.2-1.3,0-.3-.1-.3-.4,0-.6Z"/>
                <g class="cls-10">
                  <path class="cls-29" d="M73.2,16.1c-.2.2-.3.2-.5.2.3,0,.6-.1.8-.2.5-.3.5-.7,0-1-.4-.1-.9-.1-1.4-.1.4,0,.8,0,1.1.2.5.3.5.7,0,1h0Z"/>
                </g>
              </g>
              <g class="cls-10">
                <path class="cls-29" d="M69.4,18.5c0,.4.3.7.9,1l1.2-3.3c-.1-.1-.3-.2-.3-.2h0l-1.7,2.6h0Z"/>
              </g>
            </g>
            <g>
              <g class="cls-23">
                <g class="cls-23">
                  <g class="cls-23">
                    <path class="cls-35" d="M93.1,29.2c0-.2.4-.4.7-.6,1.3-.6,3.3-.6,4.5,0,.4.1.6.4.8.6l-1.6-2.5c0,0-.2-.3-.4-.3-.6-.3-1.5-.3-2.1,0-.1,0-.3.2-.3.3l-1.6,2.5h0Z"/>
                  </g>
                </g>
                <path class="cls-45" d="M93.8,28.6c1.3-.6,3.3-.6,4.5,0,1.2.6,1.2,1.7,0,2.3-1.3.6-3.3.6-4.5,0-1.2-.6-1.2-1.7,0-2.3Z"/>
                <g class="cls-23">
                  <g class="cls-23">
                    <path class="cls-35" d="M93.8,31h0c-.8-.5-1.2-1.1-.8-1.7l1.6-2.5c0,.3,0,.6.4.8l-1.2,3.3h0Z"/>
                  </g>
                  <path class="cls-35" d="M94.7,27.3h0s0-.2,0-.3l-.2.3h0Z"/>
                </g>
                <g class="cls-23">
                  <g class="cls-23">
                    <path class="cls-35" d="M99,29.2c.4.5.2,1.1-.7,1.6-1.3.6-3.3.6-4.5,0l1.2-3.3c.6.3,1.5.3,2.1,0,.3-.2.5-.5.3-.8l1.6,2.5h0Z"/>
                  </g>
                </g>
                <path class="cls-45" d="M95,26.5c.6-.3,1.5-.3,2.1,0,.6.3.6.8,0,1.1s-1.5.3-2.1,0c-.6-.3-.6-.8,0-1.1Z"/>
                <path class="cls-43" d="M95.4,26.8c.4-.2.9-.2,1.3,0,.3.1.3.4,0,.6-.4.2-.9.2-1.3,0-.3-.1-.3-.4,0-.6Z"/>
                <g class="cls-10">
                  <path class="cls-29" d="M96.7,27.4c-.2.2-.3.2-.5.2.3,0,.6-.1.8-.2.5-.3.5-.7,0-1-.4-.1-.9-.1-1.4-.1.4,0,.8,0,1.1.2.5.3.5.7,0,1h0Z"/>
                </g>
              </g>
              <g class="cls-10">
                <path class="cls-29" d="M92.8,29.8c0,.4.3.7.9,1l1.2-3.3c-.1-.1-.3-.2-.3-.2h0l-1.7,2.6h0Z"/>
              </g>
            </g>
            <g>
              <g class="cls-23">
                <g class="cls-23">
                  <g class="cls-23">
                    <path class="cls-35" d="M80.6,23.7c0-.2.4-.4.7-.6,1.3-.6,3.3-.6,4.5,0,.4.1.6.4.8.6l-1.6-2.5c0,0-.2-.3-.4-.3-.6-.3-1.5-.3-2.1,0-.1,0-.3.2-.3.3l-1.6,2.5h0Z"/>
                  </g>
                </g>
                <path class="cls-45" d="M81.4,23c1.3-.6,3.3-.6,4.5,0,1.2.6,1.2,1.7,0,2.3-1.3.6-3.3.6-4.5,0-1.2-.6-1.2-1.7,0-2.3Z"/>
                <g class="cls-23">
                  <g class="cls-23">
                    <path class="cls-35" d="M81.4,25.4h0c-.8-.5-1.2-1.1-.8-1.7l1.6-2.5c0,.3,0,.6.4.8l-1.2,3.3h0Z"/>
                  </g>
                  <path class="cls-35" d="M82.3,21.7h0s0-.2,0-.3l-.2.3h0Z"/>
                </g>
                <g class="cls-23">
                  <g class="cls-23">
                    <path class="cls-35" d="M86.6,23.6c.4.5.2,1.1-.7,1.6-1.3.6-3.3.6-4.5,0l1.2-3.3c.6.3,1.5.3,2.1,0,.3-.2.5-.5.3-.8l1.6,2.5h0Z"/>
                  </g>
                </g>
                <path class="cls-45" d="M82.6,20.9c.6-.3,1.5-.3,2.1,0,.6.3.6.8,0,1.1s-1.5.3-2.1,0c-.6-.3-.6-.8,0-1.1Z"/>
                <path class="cls-43" d="M83,21.2c.4-.2.9-.2,1.3,0,.3.1.3.4,0,.6-.4.2-.9.2-1.3,0-.3-.1-.3-.4,0-.6Z"/>
                <g class="cls-10">
                  <path class="cls-29" d="M84.3,21.8c-.2.2-.3.2-.5.2.3,0,.6-.1.8-.2.5-.3.5-.7,0-1-.4-.1-.9-.1-1.4-.1.4,0,.8,0,1.1.2.5.3.5.7,0,1h0Z"/>
                </g>
              </g>
              <g class="cls-10">
                <path class="cls-29" d="M80.4,24.2c0,.4.3.7.9,1l1.2-3.3c-.1-.1-.3-.2-.3-.2h0l-1.7,2.6h0Z"/>
              </g>
            </g>
          </g>
        </g>
      </g>
      <path class="cls-4" d="M122.8,75.9v.9s-20.1,10.2-20.1,10.2c0-.3,0-.6-.1-1l20.3-10Z"/>
      <path class="cls-15" d="M101.6,82.1l16.9-8.3,4.3,2-20.3,10c-.2-1-.5-2.3-.9-3.8Z"/>
      <path class="cls-2" d="M43.8,78.4c8-8.6,20.9-8,31.1-13.1,8.4-4.3,8-5.4,8-5.4"/>
      <g>
        <path class="cls-26" d="M59.4,89.8h0c-1.6,0-3.1-.3-3.8-.7h0c-1.6-1.4-1.3-4.5-1-6.4v-.5h0c.9-3.8,4-3.8,7-3.8s4.3,0,6.5-1.1c.4-.3,0-.3,1.1-.3s1.9.6,2.3,1.6c.7,1.5.5,4.2-2.2,7.3-1.8,2.2-4,2.8-6.2,3.4-1.2.3-2.3.5-3.6.5h0Z"/>
        <path class="cls-21" d="M55.5,82.6c-.2,1.4-.6,4.3.4,5.7,0,.2.2.3.3.4.2.2.5.3,1,.4.3,0,.5.2.9.2h.8c1.2,0,2.6,0,4-.5,2.2-.5,4.2-1.2,5.9-3.2,4.2-4.6,2-8.5-.3-7.4-1.6.7-3.3,1.1-5,1.1h-1.9c-.4,0-.7,0-1,0-.9,0-1.7,0-2.4.3-1.3.4-2.2,1.2-2.6,2.9v.2Z"/>
        <path class="cls-24" d="M55.8,88.1c0,.2.2.3.3.4.2.2.5.3,1,.4.5-1.5,2.7-7.5,3.4-9.6-.9,0-1.7,0-2.4.3l-2.3,8.6h0Z"/>
        <path class="cls-24" d="M63.6,79.3h-1.9s-3.5,9.7-3.5,9.7h.8c.5-1.2,3.8-7.9,4.5-9.8h0Z"/>
      </g>
      <path class="cls-47" d="M123.6,54.6v22.2s4.8-2.8,4.8-2.8c0,0-.2-11.9,6-16.2l4.1-6.9-7.8.2-7.1,3.6Z"/>
      <path class="cls-8" d="M128.3,74c1.5-7.1,1.9-9.2,7.1-16.1s15.7-7,19.8-1.9c.8.9,1.7,2.6,2.2,3.8,0,0-.9-2.8-2.8-5.3s-4.7-5-9.7-4.9-10.4,3.4-13,7.4c-4.4,6.7-3.8,13.5-3.6,17Z"/>
      <g>
        <path class="cls-29" d="M47.2,91.5c-16.6-7.2-23.4-14.7-24.5-16.7-2.1-2.4-1.8-4.9-1.7-6.5.2-9.1,2-10.5,2.1-10.6.3-2.5,1.4-3.8,3.3-2.5.7.4,20.7,12.1,21,12.4,2.3,1.8,2.1,3.2,2.2,4.1,0,.1.2,3.1.7,4.4h0c.2.2.3.5.3,1,.3.7-.3,9.3-.8,12.5-.1,2.2-2.6,2-2.6,2Z"/>
        <path class="cls-5" d="M49.2,89.5c-.2,1.2-1.2,1.5-1.8,1.3-14.6-6.2-21.6-12.6-24.2-16.4-1.4-1.7-1.9-3.5-1.8-5.1.2-10,2.2-10.5,2.5-12.1s1.2-2.4,3.6-.5,19.4,11.3,19.8,11.7c2,1.7,1.4,3.7,1.5,4.4,0,.1.4,2.3,1,3.6h0c0,.2.3.5.3.8.3.6-.3,8.6-.8,12.2h0Z"/>
        <path class="cls-39" d="M48,76.2c.2.9.4,0,.2,2.5s-.3,5.9-.6,10.2c0,1-.8.5-.8.5-9.7-4.4-20.3-10-24.3-16.7-.7-1.1-.8-2-.7-3.8s.4-4.3.9-7.7c0-.5.5-1.4,1-2.1s.5-2.9,2.2-1.5c5,4.2,15.7,10,19,11.6s1.9,2.2,2.2,4.1.6,1.7,1,2.8Z"/>
        <g>
          <path d="M24.2,67.9c-.6-.9-1.3,0-1.2,1.7s0,2,1,3.5,4.5,4.1,8.2,6.6c3.7,2.5,8.1,4.5,12.2,6.6.4.2.7,0,.8-.5-4.1-2.1-6.3-4.6-10.9-7.5s-8.2-4.5-9.3-5.9c-.4-.5-.7-1.1-.8-3.3,0-.5,0-1,0-1.3h0Z"/>
          <path d="M25.1,62.5c0-.5,0-1,0-1.3-.6-.9-1.4-.7-1.4,1,0,2.2-.4,2.2.5,3.9s5,4.4,8.5,6.7c3.5,2.3,8.1,4.5,12.2,6.6.4.2,1-.1,1.1-.5-4.1-2.1-7.9-4.7-11.3-7.2-4.7-3.5-8.3-4.5-9.4-5.9-.4-.5-.3-1-.4-3.2h.1Z"/>
          <path class="cls-46" d="M24.8,72.6c1.1,1.5,3.5,3.1,8.3,6.7,3.4,2.5,8.1,4.5,12.2,6.6v-.2s.3-3.6.3-3.6c0-.3,0-.6-.4-.7-1.5-.8-7.9-3.4-12-6.3-4.1-2.9-7.3-4.9-9-7.2h0c-.1.3-.4-.6-.4,1.4s.6,2.8,1.2,3.4h-.1Z"/>
          <path class="cls-46" d="M34.9,68.3c-4.8-2.9-10-7.5-10-7.5-.1.4-.4,1.8-.4,2.3,0,2.2-.4.7.6,2.4s5.4,4.7,8.8,6.8,8.1,4.5,12.2,6.6v-.3c.1,0,.3-3.5.3-3.5,0-.3,0-.6-.4-.7-1.5-.8-7.7-4-11-6.1Z"/>
        </g>
      </g>
      <g>
        <path class="cls-13" d="M98.1,78.8c-.3-.9.7-3.3,2.7-6.5h-.8c-2.3,3.8-3.5,6.6-3.2,7.6.4,1.2,3-.5,6.5-3.9h0c-2.8,2.6-4.8,3.8-5.1,2.8h0Z"/>
        <path class="cls-13" d="M120.4,50.7c-.5-1.5-2.7-.6-7.7,4.8.2.2.4.4.6.6,3.8-4,5-3.9,5.4-2.7.5,1.4-.9,4.7-5.5,10.9h0c5.6-7.3,7.7-11.9,7.1-13.6h0Z"/>
        <path class="cls-13" d="M97.2,67.6c.4-4.3,4.5-9.6,9.2-11.8s8.1-.6,7.6,3.7c-.4,4.3-4.5,9.6-9.2,11.8s-8,.5-7.6-3.8h0ZM102.6,59.2l.8,7.4,2.6-10c-1.2.6-2.3,1.5-3.4,2.6h0ZM105.5,61.1l-1.3,5.2,1.8-.8-.4-4.3h0ZM107.5,64.6l2.3-8.9c-.9,0-2,0-3.2.6l.9,8.3h0ZM101.8,67.4l-.4-4.3-1.3,5.2,1.7-.8h0ZM111.6,63.5c.5-1.1.8-2.2,1-3.3.2-2.1-.5-3.5-1.8-4.2l.8,7.5h0ZM110,63.5l-.4-4.3-1.3,5.2,1.7-.8h0ZM110,64.3l-2.1,1-.3,1.1.3,2.2c.8-.8,1.6-1.6,2.3-2.6l-.2-1.7h0ZM102.1,71.4l-.3-3.2-2.1,1-.3,1.1c.6.8,1.5,1.1,2.7,1.1h0ZM106,66.3l-2.1,1-1.1,4.1c.7,0,1.4-.3,2.1-.7s.9-.5,1.4-.8l-.3-3.6h0ZM101.3,60.8c-1.4,1.9-2.4,4.1-2.6,6.1s0,2,.3,2.7l2.3-8.8h0Z"/>
      </g>
      <g>
        <path class="cls-20" d="M114.2,34.8l-7.9,4.5c-1.3.8-2.4,1.7-3.1,2.8l-8.6,9.4c-.7,1.2-.9,2.3-.7,3.6v5.3c0,.3.5.5.9.3l17.2-9.8c3-1.8,4.9-4.6,4.9-7.5l-.6-7.9c0-.8-1.2-1.3-2.1-.8h0Z"/>
        <path class="cls-28" d="M115.2,43v-.2c0,2.9-1.8,5.8-4.9,7.5,0,0-16.6,9.4-16.7,9.4v-5c0-1.3.3-2.5,1-3.6,0,0,3-5.3,5.2-7.6s6.3-4.4,7.6-5.1l6.8-3.9h.4v.5s.6,7.9.6,7.9h0Z"/>
        <path class="cls-44" d="M97.4,58.9v-.2s.4,2,.4,2h-3.7s-1.7,1.1-2.4,1.3c-1.9.6-1.6-1.2-.5-3.5,1.5-2.8,1.5-2.5,2.2-3.6.4-.7,1.2.1,1.2,2.7s.2,1.2.2,1.2h2.6Z"/>
        <g>
          <path class="cls-14" d="M95.5,54.4l2,5.8c0,.5.9,2.2,1.7,2.4s1.5,0,2.2,0,1-.2,1-.7l.2-6.2c0-.6-.4-1.1-1.2-1.4l-3-1.1c-.1,0-.3,0-.3,0h-.3s-1.7.7-2.4,1.5h.1Z"/>
          <path class="cls-27" d="M95.3,54.9s0,.2,0,.2v5.6c0,.7.4,1.2,1,1.3l2.7.7c.5.2,1.1,0,1.2-.5v-5.7c0-.7-.4-1.2-1-1.3l-3.1-.9c-.4-.2-.9.2-.9.5h0Z"/>
        </g>
        <polygon class="cls-12" points="108 51.6 109.2 50.9 113.2 35.1 111.1 36.4 108 51.6"/>
        <polygon class="cls-12" points="105.4 52.9 107.4 51.9 110.4 36.6 107.7 38.2 105.4 52.9"/>
      </g>
      <path d="M73.2,94.4l1.6-9.7,6-7.6,4.7-2.8h.1c0-.1,8.8-.1,8.8-.1l5.8,4.6c.6,1.1,1.1,2.2,1.4,3.3.5,1.4.9,3.8.9,3.8v1c.1,0-6.7-3.3-6.7-3.3l-22.7,10.8Z"/>
      <g>
        <path class="cls-7" d="M80.6,107c2.2,1.1,4.4,1.8,7.1,1.1,2.2-.7,12.2-25.1,12.2-25.1,0,0-1.7-4-9.3-6-1.6-.2-5-.1-7.4,1.3-6,3.6-10.4,10.7-10.5,17.6,0,2.2.1,3.6,1.1,5.1,1,.9,3.7,3.8,6.8,6Z"/>
        <path class="cls-3" d="M90.2,81.4c6-3.4,11,0,11.4,6.8s-4.3,15.3-10.3,18.7c-2.2,1.4-4.8,1.9-6.6,1.5-2.9-.5-6-3.1-6-7.4,0-9,5.5-16.2,11.5-19.6Z"/>
        <path class="cls-36" d="M84.2,98.9c0-4.4,3.1-9.6,6.9-11.8,1.1-.5.7-.9,3.1-.9s3.8.5,3.8,4.9-3.1,9.6-6.9,11.8c-1.1.5-2.2.9-3.1.9-2.4,0-3.8-.5-3.8-4.9Z"/>
        <path class="cls-16" d="M85.9,103.1h.2c10.8-6,10.3-16.3,10.3-16.3h0c1.1.7,1.8-.1,1.8,4.3s-3.1,9.6-6.9,11.8c-1.1.5-2.1.9-3.1.9s-1.9-.2-2.4-.7h0Z"/>
        <path class="cls-38" d="M84.6,96.8v-.4c0,1.5.5,2.4,1.4,2.9h0c.2.2,2.4,1.3,2.4,1.3l1.1-1.8c2.2-1.5,3.8-4.6,3.8-7.1h0l.5-1.8-2.2-1.1h-.9c-.7,0-1.3,0-2,.5-2.4,1.4-4.2,4.7-4.2,7.4h.1Z"/>
        <path class="cls-17" d="M89.2,100.8c-1.4,0-2.5-.4-2.5-3.1s1.8-6.1,4.2-7.4c.7-.3.6-.5,2-.5s2.5.4,2.5,3.1-1.8,6.1-4.2,7.4c-.7.3-.6.5-2,.5Z"/>
        <path class="cls-17" d="M83.6,98.9c0,3.2,1.6,5.4,4.3,5.4s2.2-.4,3.3-1.1c4-2.3,7.1-9.1,7.1-12.3s-1.6-5.4-4.3-5.4-2.2.4-3.3,1.1c-4,2.3-7.1,9.1-7.1,12.3ZM84.2,98.9c0-4.4,3.1-9.6,6.9-11.8,1.1-.5.7-.9,3.1-.9s3.8.5,3.8,4.9-3.1,9.6-6.9,11.8c-1.1.5-2.2.9-3.1.9-2.4,0-3.8-.5-3.8-4.9Z"/>
      </g>
      <path class="cls-8" d="M72.2,97.8c1.8-6.9,3.8-9.4,7-13.4,7.2-9,16.5-9.8,21.3-3.9.9,1,1.7,4.1,2.3,5.5,0,0,.2-5.2-2-8.1s-6-5.3-11.8-5.2-11.4,4.2-14.4,9.9c-2.9,6.8-2.6,11.2-2.3,15.2Z"/>
    </g>
  </g>
</svg>